M48
INCH,TZ
T1C0.020
T2C0.020
T3C0.025
T4C0.026
T5C0.030
T6C0.039
T7C0.040
T8C0.043
T9C0.051
T10C0.053
%
G90
G05
T2
X5709Y-27559
X6457Y-22480
X7008Y-9567
X8563Y-6988
X9154Y-9350
X9386Y-25779
X9543Y-25044
X9606Y-21063
X10394Y-28583
X10669Y-18228
X11417Y-10728
X11417Y-27402
X12244Y-32874
X13937Y-28858
X13937Y-38386
X13976Y-30512
X15118Y-13386
X15433Y-27047
X15551Y-27756
X15650Y-35335
X15735Y-9646
X15748Y-10591
X17126Y-32441
X17205Y-12362
X17780Y-32117
X18819Y-39094
X19331Y-35276
X19724Y-19291
X20472Y-18031
X20472Y-21142
X20536Y-23425
X21063Y-28937
X21063Y-29724
X21496Y-19843
X21732Y-28150
X22126Y-30906
X23191Y-15978
X24016Y-21654
X25827Y-15039
X26929Y-13228
X31299Y-27559
X32047Y-22480
X32598Y-9567
X34154Y-6988
X34744Y-9350
X34976Y-25779
X35133Y-25044
X35197Y-21063
X35984Y-28583
X36260Y-18228
X37008Y-10728
X37008Y-27402
X37835Y-32874
X39528Y-28858
X39528Y-38386
X39567Y-30512
X40709Y-13386
X41024Y-27047
X41142Y-27756
X41240Y-35335
X41326Y-9646
X41339Y-10591
X42717Y-32441
X42795Y-12362
X43371Y-32117
X44409Y-39094
X44921Y-35276
X45315Y-19291
X46063Y-18031
X46063Y-21142
X46126Y-23425
X46654Y-28937
X46654Y-29724
X47087Y-19843
X47323Y-28150
X47717Y-30906
X48781Y-15978
X49606Y-21654
X51417Y-15039
X52520Y-13228
X56890Y-27559
X57638Y-22480
X58189Y-9567
X59744Y-6988
X60335Y-9350
X60567Y-25779
X60724Y-25044
X60787Y-21063
X61575Y-28583
X61850Y-18228
X62598Y-10728
X62598Y-27402
X63425Y-32874
X65118Y-28858
X65118Y-38386
X65157Y-30512
X66299Y-13386
X66614Y-27047
X66732Y-27756
X66831Y-35335
X66916Y-9646
X66929Y-10591
X68307Y-32441
X68386Y-12362
X68961Y-32117
X70000Y-39094
X70512Y-35276
X70906Y-19291
X71654Y-18031
X71654Y-21142
X71717Y-23425
X72244Y-28937
X72244Y-29724
X72677Y-19843
X72913Y-28150
X73307Y-30906
X74372Y-15978
X75197Y-21654
X77008Y-15039
X78110Y-13228
X82480Y-27559
X83228Y-22480
X83780Y-9567
X85335Y-6988
X85925Y-9350
X86157Y-25779
X86315Y-25044
X86378Y-21063
X87165Y-28583
X87441Y-18228
X88189Y-10728
X88189Y-27402
X89016Y-32874
X90709Y-28858
X90709Y-38386
X90748Y-30512
X91890Y-13386
X92205Y-27047
X92323Y-27756
X92421Y-35335
X92507Y-9646
X92520Y-10591
X93898Y-32441
X93976Y-12362
X94552Y-32117
X95591Y-39094
X96102Y-35276
X96496Y-19291
X97244Y-18031
X97244Y-21142
X97307Y-23425
X97835Y-28937
X97835Y-29724
X98268Y-19843
X98504Y-28150
X98898Y-30906
X99963Y-15978
X100787Y-21654
X102598Y-15039
X103701Y-13228
T3
X6175Y-30079
X6594Y-16831
X7480Y-24508
X7776Y-18307
X7874Y-11713
X8031Y-20079
X9350Y-5906
X9567Y-24488
X10669Y-30433
X10925Y-9547
X10925Y-12697
X11063Y-21693
X13622Y-25236
X14016Y-7402
X14173Y-37598
X14469Y-8268
X14469Y-12165
X15562Y-29325
X15748Y-31553
X15753Y-9055
X15849Y-30591
X16024Y-26496
X17126Y-15748
X17659Y-24546
X17802Y-36772
X18031Y-26028
X18133Y-16943
X18661Y-32835
X18996Y-5610
X19370Y-30000
X19587Y-36811
X24685Y-14016
X24803Y-16437
X24803Y-18209
X27559Y-5512
X28228Y-16457
X31765Y-30079
X32185Y-16831
X33071Y-24508
X33366Y-18307
X33465Y-11713
X33622Y-20079
X34941Y-5906
X35157Y-24488
X36260Y-30433
X36516Y-9547
X36516Y-12697
X36654Y-21693
X39213Y-25236
X39606Y-7402
X39764Y-37598
X40059Y-8268
X40059Y-12165
X41152Y-29325
X41339Y-31553
X41343Y-9055
X41439Y-30591
X41614Y-26496
X42717Y-15748
X43250Y-24546
X43392Y-36772
X43621Y-26028
X43723Y-16943
X44252Y-32835
X44587Y-5610
X44961Y-30000
X45177Y-36811
X50276Y-14016
X50394Y-16437
X50394Y-18209
X53150Y-5512
X53819Y-16457
X57356Y-30079
X57776Y-16831
X58661Y-24508
X58957Y-18307
X59055Y-11713
X59213Y-20079
X60531Y-5906
X60748Y-24488
X61850Y-30433
X62106Y-9547
X62106Y-12697
X62244Y-21693
X64803Y-25236
X65197Y-7402
X65354Y-37598
X65650Y-8268
X65650Y-12165
X66743Y-29325
X66929Y-31553
X66934Y-9055
X67030Y-30591
X67205Y-26496
X68307Y-15748
X68840Y-24546
X68983Y-36772
X69212Y-26028
X69314Y-16943
X69843Y-32835
X70177Y-5610
X70551Y-30000
X70768Y-36811
X75866Y-14016
X75984Y-16437
X75984Y-18209
X78740Y-5512
X79409Y-16457
X82946Y-30079
X83366Y-16831
X84252Y-24508
X84547Y-18307
X84646Y-11713
X84803Y-20079
X86122Y-5906
X86339Y-24488
X87441Y-30433
X87697Y-9547
X87697Y-12697
X87835Y-21693
X90394Y-25236
X90787Y-7402
X90945Y-37598
X91240Y-8268
X91240Y-12165
X92334Y-29325
X92520Y-31553
X92525Y-9055
X92620Y-30591
X92795Y-26496
X93898Y-15748
X94431Y-24546
X94573Y-36772
X94802Y-26028
X94904Y-16943
X95433Y-32835
X95768Y-5610
X96142Y-30000
X96358Y-36811
X101457Y-14016
X101575Y-16437
X101575Y-18209
X104331Y-5512
X105000Y-16457
T4
X17020Y-5118
X17020Y-7087
X17020Y-9055
X17020Y-11024
X18020Y-5118
X18020Y-7087
X18020Y-9055
X18020Y-11024
X42610Y-5118
X42610Y-7087
X42610Y-9055
X42610Y-11024
X43610Y-5118
X43610Y-7087
X43610Y-9055
X43610Y-11024
X68201Y-5118
X68201Y-7087
X68201Y-9055
X68201Y-11024
X69201Y-5118
X69201Y-7087
X69201Y-9055
X69201Y-11024
X93791Y-5118
X93791Y-7087
X93791Y-9055
X93791Y-11024
X94791Y-5118
X94791Y-7087
X94791Y-9055
X94791Y-11024
T5
X12992Y-24213
X12992Y-36024
X14961Y-24213
X14961Y-36024
X20079Y-24213
X20079Y-36024
X22047Y-24213
X22047Y-36024
X38583Y-24213
X38583Y-36024
X40551Y-24213
X40551Y-36024
X45669Y-24213
X45669Y-36024
X47638Y-24213
X47638Y-36024
X64173Y-24213
X64173Y-36024
X66142Y-24213
X66142Y-36024
X71260Y-24213
X71260Y-36024
X73228Y-24213
X73228Y-36024
X89764Y-24213
X89764Y-36024
X91732Y-24213
X91732Y-36024
X96850Y-24213
X96850Y-36024
X98819Y-24213
X98819Y-36024
T7
X28051Y-10370
X28051Y-11370
X28051Y-12370
X28051Y-13370
X28051Y-14370
X29051Y-10370
X29051Y-11370
X29051Y-12370
X29051Y-13370
X29051Y-14370
X53642Y-10370
X53642Y-11370
X53642Y-12370
X53642Y-13370
X53642Y-14370
X54642Y-10370
X54642Y-11370
X54642Y-12370
X54642Y-13370
X54642Y-14370
X79232Y-10370
X79232Y-11370
X79232Y-12370
X79232Y-13370
X79232Y-14370
X80232Y-10370
X80232Y-11370
X80232Y-12370
X80232Y-13370
X80232Y-14370
X104823Y-10370
X104823Y-11370
X104823Y-12370
X104823Y-13370
X104823Y-14370
X105823Y-10370
X105823Y-11370
X105823Y-12370
X105823Y-13370
X105823Y-14370
T8
X23425Y-7087
X23425Y-9055
X25394Y-7087
X25394Y-9055
X49016Y-7087
X49016Y-9055
X50984Y-7087
X50984Y-9055
X74606Y-7087
X74606Y-9055
X76575Y-7087
X76575Y-9055
X100197Y-7087
X100197Y-9055
X102165Y-7087
X102165Y-9055
T9
X5404Y-12102
X5404Y-24512
X7017Y-13231
X7017Y-23383
X8629Y-14360
X8629Y-22254
X12630Y-12018
X14243Y-13147
X15856Y-14276
X19184Y-14276
X20796Y-13147
X22409Y-12018
X26410Y-22254
X28023Y-23383
X29635Y-24512
X30995Y-12102
X30995Y-24512
X32607Y-13231
X32607Y-23383
X34220Y-14360
X34220Y-22254
X38221Y-12018
X39834Y-13147
X41446Y-14276
X44774Y-14276
X46387Y-13147
X47999Y-12018
X52001Y-22254
X53613Y-23383
X55226Y-24512
X56585Y-12102
X56585Y-24512
X58198Y-13231
X58198Y-23383
X59810Y-14360
X59810Y-22254
X63812Y-12018
X65424Y-13147
X67037Y-14276
X70365Y-14276
X71977Y-13147
X73590Y-12018
X77591Y-22254
X79204Y-23383
X80816Y-24512
X82176Y-12102
X82176Y-24512
X83788Y-13231
X83788Y-23383
X85401Y-14360
X85401Y-22254
X89402Y-12018
X91015Y-13147
X92627Y-14276
X95956Y-14276
X97568Y-13147
X99181Y-12018
X103182Y-22254
X104794Y-23383
X106407Y-24512
T10
X9547Y-17126
X12402Y-6398
X35138Y-17126
X37992Y-6398
X60728Y-17126
X63583Y-6398
X86319Y-17126
X89173Y-6398
T1
X7087Y-34488G85X7874Y-34488
G05
X7087Y-37717G85X7874Y-37717
G05
X7087Y-40000G85X7874Y-40000
G05
X7087Y-43228G85X7874Y-43228
G05
X12598Y-40000G85X13386Y-40000
G05
X12598Y-43228G85X13386Y-43228
G05
X21654Y-40000G85X22441Y-40000
G05
X21654Y-43228G85X22441Y-43228
G05
X27165Y-34488G85X27953Y-34488
G05
X27165Y-37717G85X27953Y-37717
G05
X27165Y-40000G85X27953Y-40000
G05
X27165Y-43228G85X27953Y-43228
G05
X32677Y-34488G85X33465Y-34488
G05
X32677Y-37717G85X33465Y-37717
G05
X32677Y-40000G85X33465Y-40000
G05
X32677Y-43228G85X33465Y-43228
G05
X38189Y-40000G85X38976Y-40000
G05
X38189Y-43228G85X38976Y-43228
G05
X47244Y-40000G85X48031Y-40000
G05
X47244Y-43228G85X48031Y-43228
G05
X52756Y-34488G85X53543Y-34488
G05
X52756Y-37717G85X53543Y-37717
G05
X52756Y-40000G85X53543Y-40000
G05
X52756Y-43228G85X53543Y-43228
G05
X58268Y-34488G85X59055Y-34488
G05
X58268Y-37717G85X59055Y-37717
G05
X58268Y-40000G85X59055Y-40000
G05
X58268Y-43228G85X59055Y-43228
G05
X63780Y-40000G85X64567Y-40000
G05
X63780Y-43228G85X64567Y-43228
G05
X72835Y-40000G85X73622Y-40000
G05
X72835Y-43228G85X73622Y-43228
G05
X78346Y-34488G85X79134Y-34488
G05
X78346Y-37717G85X79134Y-37717
G05
X78346Y-40000G85X79134Y-40000
G05
X78346Y-43228G85X79134Y-43228
G05
X83858Y-34488G85X84646Y-34488
G05
X83858Y-37717G85X84646Y-37717
G05
X83858Y-40000G85X84646Y-40000
G05
X83858Y-43228G85X84646Y-43228
G05
X89370Y-40000G85X90157Y-40000
G05
X89370Y-43228G85X90157Y-43228
G05
X98425Y-40000G85X99213Y-40000
G05
X98425Y-43228G85X99213Y-43228
G05
X103937Y-34488G85X104724Y-34488
G05
X103937Y-37717G85X104724Y-37717
G05
X103937Y-40000G85X104724Y-40000
G05
X103937Y-43228G85X104724Y-43228
G05
T6
X5630Y-36122G85X5630Y-36713
G05
X5630Y-41634G85X5630Y-42224
G05
X9331Y-36319G85X9331Y-36516
G05
X9331Y-41831G85X9331Y-42028
G05
X11142Y-41634G85X11142Y-42224
G05
X14843Y-41831G85X14843Y-42028
G05
X20197Y-41634G85X20197Y-42224
G05
X23898Y-41831G85X23898Y-42028
G05
X25709Y-36122G85X25709Y-36713
G05
X25709Y-41634G85X25709Y-42224
G05
X29409Y-36319G85X29409Y-36516
G05
X29409Y-41831G85X29409Y-42028
G05
X31220Y-36122G85X31220Y-36713
G05
X31220Y-41634G85X31220Y-42224
G05
X34921Y-36319G85X34921Y-36516
G05
X34921Y-41831G85X34921Y-42028
G05
X36732Y-41634G85X36732Y-42224
G05
X40433Y-41831G85X40433Y-42028
G05
X45787Y-41634G85X45787Y-42224
G05
X49488Y-41831G85X49488Y-42028
G05
X51299Y-36122G85X51299Y-36713
G05
X51299Y-41634G85X51299Y-42224
G05
X55000Y-36319G85X55000Y-36516
G05
X55000Y-41831G85X55000Y-42028
G05
X56811Y-36122G85X56811Y-36713
G05
X56811Y-41634G85X56811Y-42224
G05
X60512Y-36319G85X60512Y-36516
G05
X60512Y-41831G85X60512Y-42028
G05
X62323Y-41634G85X62323Y-42224
G05
X66024Y-41831G85X66024Y-42028
G05
X71378Y-41634G85X71378Y-42224
G05
X75079Y-41831G85X75079Y-42028
G05
X76890Y-36122G85X76890Y-36713
G05
X76890Y-41634G85X76890Y-42224
G05
X80591Y-36319G85X80591Y-36516
G05
X80591Y-41831G85X80591Y-42028
G05
X82402Y-36122G85X82402Y-36713
G05
X82402Y-41634G85X82402Y-42224
G05
X86102Y-36319G85X86102Y-36516
G05
X86102Y-41831G85X86102Y-42028
G05
X87913Y-41634G85X87913Y-42224
G05
X91614Y-41831G85X91614Y-42028
G05
X96969Y-41634G85X96969Y-42224
G05
X100669Y-41831G85X100669Y-42028
G05
X102480Y-36122G85X102480Y-36713
G05
X102480Y-41634G85X102480Y-42224
G05
X106181Y-36319G85X106181Y-36516
G05
X106181Y-41831G85X106181Y-42028
G05
T0
M30
