G04 #@! TF.FileFunction,Soldermask,Top*
%FSLAX46Y46*%
G04 Gerber Fmt 4.6, Leading zero omitted, Abs format (unit mm)*
G04 Created by KiCad (PCBNEW 4.0.2-stable) date 2016-12-22 11:23:06 AM*
%MOMM*%
G01*
G04 APERTURE LIST*
%ADD10C,0.100000*%
%ADD11R,1.727200X1.727200*%
%ADD12O,1.727200X1.727200*%
%ADD13C,1.524000*%
%ADD14C,2.500000*%
%ADD15O,2.500000X4.000000*%
%ADD16O,2.000000X2.500000*%
%ADD17O,3.500000X1.500000*%
%ADD18C,1.998980*%
%ADD19R,1.200000X1.200000*%
%ADD20C,1.200000*%
%ADD21C,2.250000*%
G04 APERTURE END LIST*
D10*
D11*
X266250000Y-36500000D03*
D12*
X268790000Y-36500000D03*
X266250000Y-33960000D03*
X268790000Y-33960000D03*
X266250000Y-31420000D03*
X268790000Y-31420000D03*
X266250000Y-28880000D03*
X268790000Y-28880000D03*
X266250000Y-26340000D03*
X268790000Y-26340000D03*
D13*
X246000000Y-91500000D03*
X251000000Y-91500000D03*
X233000000Y-91500000D03*
X228000000Y-91500000D03*
X233000000Y-61500000D03*
X228000000Y-61500000D03*
X246000000Y-61500000D03*
X251000000Y-61500000D03*
D14*
X219250000Y-43500000D03*
X226500000Y-16250000D03*
D11*
X201250000Y-36500000D03*
D12*
X203790000Y-36500000D03*
X201250000Y-33960000D03*
X203790000Y-33960000D03*
X201250000Y-31420000D03*
X203790000Y-31420000D03*
X201250000Y-28880000D03*
X203790000Y-28880000D03*
X201250000Y-26340000D03*
X203790000Y-26340000D03*
D13*
X181000000Y-91500000D03*
X186000000Y-91500000D03*
X168000000Y-91500000D03*
X163000000Y-91500000D03*
D14*
X154250000Y-43500000D03*
X161500000Y-16250000D03*
D13*
X181000000Y-61500000D03*
X186000000Y-61500000D03*
X168000000Y-61500000D03*
X163000000Y-61500000D03*
D15*
X246300000Y-106500000D03*
D16*
X255700000Y-106500000D03*
D17*
X251000000Y-101600000D03*
X251000000Y-109800000D03*
D15*
X223300000Y-106500000D03*
D16*
X232700000Y-106500000D03*
D17*
X228000000Y-101600000D03*
X228000000Y-109800000D03*
D15*
X260300000Y-92500000D03*
D16*
X269700000Y-92500000D03*
D17*
X265000000Y-87600000D03*
X265000000Y-95800000D03*
D18*
X266177223Y-59393567D03*
X262081463Y-56525685D03*
X270272983Y-62261449D03*
D15*
X209300000Y-92500000D03*
D16*
X218700000Y-92500000D03*
D17*
X214000000Y-87600000D03*
X214000000Y-95800000D03*
D15*
X260300000Y-106500000D03*
D16*
X269700000Y-106500000D03*
D17*
X265000000Y-101600000D03*
X265000000Y-109800000D03*
D15*
X209300000Y-106500000D03*
D16*
X218700000Y-106500000D03*
D17*
X214000000Y-101600000D03*
X214000000Y-109800000D03*
D18*
X212822777Y-59393567D03*
X208727017Y-62261449D03*
X216918537Y-56525685D03*
X182822777Y-33393567D03*
X178727017Y-36261449D03*
X186918537Y-30525685D03*
D19*
X175770000Y-23000000D03*
D20*
X173230000Y-23000000D03*
D21*
X189500000Y-18000000D03*
X194500000Y-18000000D03*
X194500000Y-23000000D03*
X189500000Y-23000000D03*
D18*
X166177223Y-33393567D03*
X162081463Y-30525685D03*
X170272983Y-36261449D03*
D19*
X240770000Y-18000000D03*
D20*
X238230000Y-18000000D03*
D19*
X240770000Y-28000000D03*
D20*
X238230000Y-28000000D03*
D19*
X240770000Y-23000000D03*
D20*
X238230000Y-23000000D03*
D18*
X247822777Y-33393567D03*
X243727017Y-36261449D03*
X251918537Y-30525685D03*
D21*
X254500000Y-18000000D03*
X259500000Y-18000000D03*
X259500000Y-23000000D03*
X254500000Y-23000000D03*
D19*
X240770000Y-13000000D03*
D20*
X238230000Y-13000000D03*
D18*
X212822777Y-33606433D03*
X216918537Y-36474315D03*
X208727017Y-30738551D03*
X231177223Y-33393567D03*
X227081463Y-30525685D03*
X235272983Y-36261449D03*
D15*
X144300000Y-106500000D03*
D16*
X153700000Y-106500000D03*
D17*
X149000000Y-101600000D03*
X149000000Y-109800000D03*
D15*
X144300000Y-92500000D03*
D16*
X153700000Y-92500000D03*
D17*
X149000000Y-87600000D03*
X149000000Y-95800000D03*
D18*
X147822777Y-59393567D03*
X143727017Y-62261449D03*
X151918537Y-56525685D03*
D15*
X158300000Y-106500000D03*
D16*
X167700000Y-106500000D03*
D17*
X163000000Y-101600000D03*
X163000000Y-109800000D03*
D18*
X201177223Y-59393567D03*
X197081463Y-56525685D03*
X205272983Y-62261449D03*
D15*
X195300000Y-92500000D03*
D16*
X204700000Y-92500000D03*
D17*
X200000000Y-87600000D03*
X200000000Y-95800000D03*
D15*
X181300000Y-106500000D03*
D16*
X190700000Y-106500000D03*
D17*
X186000000Y-101600000D03*
X186000000Y-109800000D03*
D15*
X195300000Y-106500000D03*
D16*
X204700000Y-106500000D03*
D17*
X200000000Y-101600000D03*
X200000000Y-109800000D03*
D19*
X175770000Y-18000000D03*
D20*
X173230000Y-18000000D03*
D19*
X175770000Y-13000000D03*
D20*
X173230000Y-13000000D03*
D19*
X175770000Y-28000000D03*
D20*
X173230000Y-28000000D03*
D18*
X147822777Y-33606433D03*
X151918537Y-36474315D03*
X143727017Y-30738551D03*
D14*
X96500000Y-16250000D03*
D11*
X136250000Y-36500000D03*
D12*
X138790000Y-36500000D03*
X136250000Y-33960000D03*
X138790000Y-33960000D03*
X136250000Y-31420000D03*
X138790000Y-31420000D03*
X136250000Y-28880000D03*
X138790000Y-28880000D03*
X136250000Y-26340000D03*
X138790000Y-26340000D03*
D13*
X103000000Y-91500000D03*
X98000000Y-91500000D03*
X116000000Y-91500000D03*
X121000000Y-91500000D03*
D14*
X89250000Y-43500000D03*
D13*
X116000000Y-61500000D03*
X121000000Y-61500000D03*
X103000000Y-61500000D03*
X98000000Y-61500000D03*
D15*
X130300000Y-106500000D03*
D16*
X139700000Y-106500000D03*
D17*
X135000000Y-101600000D03*
X135000000Y-109800000D03*
D15*
X93300000Y-106500000D03*
D16*
X102700000Y-106500000D03*
D17*
X98000000Y-101600000D03*
X98000000Y-109800000D03*
D15*
X116300000Y-106500000D03*
D16*
X125700000Y-106500000D03*
D17*
X121000000Y-101600000D03*
X121000000Y-109800000D03*
D15*
X130300000Y-92500000D03*
D16*
X139700000Y-92500000D03*
D17*
X135000000Y-87600000D03*
X135000000Y-95800000D03*
D15*
X79300000Y-92500000D03*
D16*
X88700000Y-92500000D03*
D17*
X84000000Y-87600000D03*
X84000000Y-95800000D03*
D15*
X79300000Y-106500000D03*
D16*
X88700000Y-106500000D03*
D17*
X84000000Y-101600000D03*
X84000000Y-109800000D03*
D18*
X136177223Y-59393567D03*
X132081463Y-56525685D03*
X140272983Y-62261449D03*
X82822777Y-59393567D03*
X78727017Y-62261449D03*
X86918537Y-56525685D03*
X117822777Y-33393567D03*
X113727017Y-36261449D03*
X121918537Y-30525685D03*
D21*
X124500000Y-18000000D03*
X129500000Y-18000000D03*
X129500000Y-23000000D03*
X124500000Y-23000000D03*
D18*
X101177223Y-33393567D03*
X97081463Y-30525685D03*
X105272983Y-36261449D03*
X82822777Y-33606433D03*
X86918537Y-36474315D03*
X78727017Y-30738551D03*
D19*
X110770000Y-18000000D03*
D20*
X108230000Y-18000000D03*
D19*
X110770000Y-23000000D03*
D20*
X108230000Y-23000000D03*
D19*
X110770000Y-28000000D03*
D20*
X108230000Y-28000000D03*
D19*
X110770000Y-13000000D03*
D20*
X108230000Y-13000000D03*
D18*
X17822777Y-33606433D03*
X21918537Y-36474315D03*
X13727017Y-30738551D03*
D21*
X59500000Y-18000000D03*
X64500000Y-18000000D03*
X64500000Y-23000000D03*
X59500000Y-23000000D03*
D14*
X24250000Y-43500000D03*
X31500000Y-16250000D03*
D19*
X45770000Y-28000000D03*
D20*
X43230000Y-28000000D03*
D19*
X45770000Y-23000000D03*
D20*
X43230000Y-23000000D03*
D19*
X45770000Y-18000000D03*
D20*
X43230000Y-18000000D03*
D19*
X45770000Y-13000000D03*
D20*
X43230000Y-13000000D03*
D18*
X36177223Y-33393567D03*
X32081463Y-30525685D03*
X40272983Y-36261449D03*
X17822777Y-59393567D03*
X13727017Y-62261449D03*
X21918537Y-56525685D03*
X71177223Y-59393567D03*
X67081463Y-56525685D03*
X75272983Y-62261449D03*
X52822777Y-33393567D03*
X48727017Y-36261449D03*
X56918537Y-30525685D03*
D15*
X14300000Y-106500000D03*
D16*
X23700000Y-106500000D03*
D17*
X19000000Y-101600000D03*
X19000000Y-109800000D03*
D15*
X14300000Y-92500000D03*
D16*
X23700000Y-92500000D03*
D17*
X19000000Y-87600000D03*
X19000000Y-95800000D03*
D15*
X65300000Y-92500000D03*
D16*
X74700000Y-92500000D03*
D17*
X70000000Y-87600000D03*
X70000000Y-95800000D03*
D15*
X51300000Y-106500000D03*
D16*
X60700000Y-106500000D03*
D17*
X56000000Y-101600000D03*
X56000000Y-109800000D03*
D15*
X28300000Y-106500000D03*
D16*
X37700000Y-106500000D03*
D17*
X33000000Y-101600000D03*
X33000000Y-109800000D03*
D15*
X65300000Y-106500000D03*
D16*
X74700000Y-106500000D03*
D17*
X70000000Y-101600000D03*
X70000000Y-109800000D03*
D11*
X71250000Y-36500000D03*
D12*
X73790000Y-36500000D03*
X71250000Y-33960000D03*
X73790000Y-33960000D03*
X71250000Y-31420000D03*
X73790000Y-31420000D03*
X71250000Y-28880000D03*
X73790000Y-28880000D03*
X71250000Y-26340000D03*
X73790000Y-26340000D03*
D13*
X51000000Y-61500000D03*
X56000000Y-61500000D03*
X38000000Y-61500000D03*
X33000000Y-61500000D03*
X38000000Y-91500000D03*
X33000000Y-91500000D03*
X51000000Y-91500000D03*
X56000000Y-91500000D03*
M02*
