G04 #@! TF.FileFunction,Legend,Top*
%FSLAX46Y46*%
G04 Gerber Fmt 4.6, Leading zero omitted, Abs format (unit mm)*
G04 Created by KiCad (PCBNEW 4.0.2-stable) date 2016-12-05 12:03:52 PM*
%MOMM*%
G01*
G04 APERTURE LIST*
%ADD10C,0.100000*%
%ADD11C,0.300000*%
%ADD12C,0.150000*%
%ADD13C,0.304800*%
%ADD14C,0.152400*%
%ADD15R,1.727200X1.727200*%
%ADD16O,1.727200X1.727200*%
%ADD17C,1.524000*%
%ADD18C,2.500000*%
%ADD19O,2.500000X4.000000*%
%ADD20O,2.000000X2.500000*%
%ADD21O,3.500000X1.500000*%
%ADD22C,1.998980*%
%ADD23R,1.200000X1.200000*%
%ADD24C,1.200000*%
%ADD25C,2.250000*%
G04 APERTURE END LIST*
D10*
D11*
X165250000Y-14892857D02*
X164750000Y-14892857D01*
X164750000Y-15678571D02*
X164750000Y-14178571D01*
X165464286Y-14178571D01*
X166892857Y-15678571D02*
X166392857Y-14964286D01*
X166035714Y-15678571D02*
X166035714Y-14178571D01*
X166607142Y-14178571D01*
X166750000Y-14250000D01*
X166821428Y-14321429D01*
X166892857Y-14464286D01*
X166892857Y-14678571D01*
X166821428Y-14821429D01*
X166750000Y-14892857D01*
X166607142Y-14964286D01*
X166035714Y-14964286D01*
X167535714Y-14892857D02*
X168035714Y-14892857D01*
X168250000Y-15678571D02*
X167535714Y-15678571D01*
X167535714Y-14178571D01*
X168250000Y-14178571D01*
X169892857Y-15821429D02*
X169750000Y-15750000D01*
X169607143Y-15607143D01*
X169392857Y-15392857D01*
X169250000Y-15321429D01*
X169107143Y-15321429D01*
X169178571Y-15678571D02*
X169035714Y-15607143D01*
X168892857Y-15464286D01*
X168821428Y-15178571D01*
X168821428Y-14678571D01*
X168892857Y-14392857D01*
X169035714Y-14250000D01*
X169178571Y-14178571D01*
X169464285Y-14178571D01*
X169607143Y-14250000D01*
X169750000Y-14392857D01*
X169821428Y-14678571D01*
X169821428Y-15178571D01*
X169750000Y-15464286D01*
X169607143Y-15607143D01*
X169464285Y-15678571D01*
X169178571Y-15678571D01*
X168235714Y-51778571D02*
X168235714Y-50278571D01*
X168735714Y-51350000D01*
X169235714Y-50278571D01*
X169235714Y-51778571D01*
X171092857Y-51778571D02*
X171092857Y-50278571D01*
X172950000Y-51778571D02*
X172950000Y-50278571D01*
X173450000Y-51350000D01*
X173950000Y-50278571D01*
X173950000Y-51778571D01*
X176092857Y-50278571D02*
X176378571Y-50278571D01*
X176521429Y-50350000D01*
X176664286Y-50492857D01*
X176735714Y-50778571D01*
X176735714Y-51278571D01*
X176664286Y-51564286D01*
X176521429Y-51707143D01*
X176378571Y-51778571D01*
X176092857Y-51778571D01*
X175950000Y-51707143D01*
X175807143Y-51564286D01*
X175735714Y-51278571D01*
X175735714Y-50778571D01*
X175807143Y-50492857D01*
X175950000Y-50350000D01*
X176092857Y-50278571D01*
X178521429Y-51778571D02*
X178521429Y-50278571D01*
X180378572Y-51778571D02*
X180378572Y-50278571D01*
X180735715Y-50278571D01*
X180950000Y-50350000D01*
X181092858Y-50492857D01*
X181164286Y-50635714D01*
X181235715Y-50921429D01*
X181235715Y-51135714D01*
X181164286Y-51421429D01*
X181092858Y-51564286D01*
X180950000Y-51707143D01*
X180735715Y-51778571D01*
X180378572Y-51778571D01*
X159821429Y-57178571D02*
X159321429Y-56464286D01*
X158964286Y-57178571D02*
X158964286Y-55678571D01*
X159535714Y-55678571D01*
X159678572Y-55750000D01*
X159750000Y-55821429D01*
X159821429Y-55964286D01*
X159821429Y-56178571D01*
X159750000Y-56321429D01*
X159678572Y-56392857D01*
X159535714Y-56464286D01*
X158964286Y-56464286D01*
X160464286Y-56392857D02*
X160964286Y-56392857D01*
X161178572Y-57178571D02*
X160464286Y-57178571D01*
X160464286Y-55678571D01*
X161178572Y-55678571D01*
X161750000Y-57107143D02*
X161964286Y-57178571D01*
X162321429Y-57178571D01*
X162464286Y-57107143D01*
X162535715Y-57035714D01*
X162607143Y-56892857D01*
X162607143Y-56750000D01*
X162535715Y-56607143D01*
X162464286Y-56535714D01*
X162321429Y-56464286D01*
X162035715Y-56392857D01*
X161892857Y-56321429D01*
X161821429Y-56250000D01*
X161750000Y-56107143D01*
X161750000Y-55964286D01*
X161821429Y-55821429D01*
X161892857Y-55750000D01*
X162035715Y-55678571D01*
X162392857Y-55678571D01*
X162607143Y-55750000D01*
X224821429Y-57178571D02*
X224321429Y-56464286D01*
X223964286Y-57178571D02*
X223964286Y-55678571D01*
X224535714Y-55678571D01*
X224678572Y-55750000D01*
X224750000Y-55821429D01*
X224821429Y-55964286D01*
X224821429Y-56178571D01*
X224750000Y-56321429D01*
X224678572Y-56392857D01*
X224535714Y-56464286D01*
X223964286Y-56464286D01*
X225464286Y-56392857D02*
X225964286Y-56392857D01*
X226178572Y-57178571D02*
X225464286Y-57178571D01*
X225464286Y-55678571D01*
X226178572Y-55678571D01*
X226750000Y-57107143D02*
X226964286Y-57178571D01*
X227321429Y-57178571D01*
X227464286Y-57107143D01*
X227535715Y-57035714D01*
X227607143Y-56892857D01*
X227607143Y-56750000D01*
X227535715Y-56607143D01*
X227464286Y-56535714D01*
X227321429Y-56464286D01*
X227035715Y-56392857D01*
X226892857Y-56321429D01*
X226821429Y-56250000D01*
X226750000Y-56107143D01*
X226750000Y-55964286D01*
X226821429Y-55821429D01*
X226892857Y-55750000D01*
X227035715Y-55678571D01*
X227392857Y-55678571D01*
X227607143Y-55750000D01*
X160928572Y-100178571D02*
X160928572Y-98678571D01*
X161642858Y-100178571D02*
X161642858Y-98678571D01*
X162500001Y-100178571D01*
X162500001Y-98678571D01*
X165142858Y-100178571D02*
X164285715Y-100178571D01*
X164714287Y-100178571D02*
X164714287Y-98678571D01*
X164571430Y-98892857D01*
X164428572Y-99035714D01*
X164285715Y-99107143D01*
X151535715Y-83335714D02*
X151464286Y-83407143D01*
X151250000Y-83478571D01*
X151107143Y-83478571D01*
X150892858Y-83407143D01*
X150750000Y-83264286D01*
X150678572Y-83121429D01*
X150607143Y-82835714D01*
X150607143Y-82621429D01*
X150678572Y-82335714D01*
X150750000Y-82192857D01*
X150892858Y-82050000D01*
X151107143Y-81978571D01*
X151250000Y-81978571D01*
X151464286Y-82050000D01*
X151535715Y-82121429D01*
X151964286Y-81978571D02*
X152464286Y-83478571D01*
X152964286Y-81978571D01*
X155392857Y-83478571D02*
X154535714Y-83478571D01*
X154964286Y-83478571D02*
X154964286Y-81978571D01*
X154821429Y-82192857D01*
X154678571Y-82335714D01*
X154535714Y-82407143D01*
X152750000Y-85092857D02*
X152964286Y-85164286D01*
X153035714Y-85235714D01*
X153107143Y-85378571D01*
X153107143Y-85592857D01*
X153035714Y-85735714D01*
X152964286Y-85807143D01*
X152821428Y-85878571D01*
X152250000Y-85878571D01*
X152250000Y-84378571D01*
X152750000Y-84378571D01*
X152892857Y-84450000D01*
X152964286Y-84521429D01*
X153035714Y-84664286D01*
X153035714Y-84807143D01*
X152964286Y-84950000D01*
X152892857Y-85021429D01*
X152750000Y-85092857D01*
X152250000Y-85092857D01*
X153750000Y-85878571D02*
X153750000Y-84378571D01*
X146107144Y-99928571D02*
X145607144Y-99214286D01*
X145250001Y-99928571D02*
X145250001Y-98428571D01*
X145821429Y-98428571D01*
X145964287Y-98500000D01*
X146035715Y-98571429D01*
X146107144Y-98714286D01*
X146107144Y-98928571D01*
X146035715Y-99071429D01*
X145964287Y-99142857D01*
X145821429Y-99214286D01*
X145250001Y-99214286D01*
X146750001Y-99142857D02*
X147250001Y-99142857D01*
X147464287Y-99928571D02*
X146750001Y-99928571D01*
X146750001Y-98428571D01*
X147464287Y-98428571D01*
X148035715Y-99857143D02*
X148250001Y-99928571D01*
X148607144Y-99928571D01*
X148750001Y-99857143D01*
X148821430Y-99785714D01*
X148892858Y-99642857D01*
X148892858Y-99500000D01*
X148821430Y-99357143D01*
X148750001Y-99285714D01*
X148607144Y-99214286D01*
X148321430Y-99142857D01*
X148178572Y-99071429D01*
X148107144Y-99000000D01*
X148035715Y-98857143D01*
X148035715Y-98714286D01*
X148107144Y-98571429D01*
X148178572Y-98500000D01*
X148321430Y-98428571D01*
X148678572Y-98428571D01*
X148892858Y-98500000D01*
X151535715Y-99785714D02*
X151464286Y-99857143D01*
X151250000Y-99928571D01*
X151107143Y-99928571D01*
X150892858Y-99857143D01*
X150750000Y-99714286D01*
X150678572Y-99571429D01*
X150607143Y-99285714D01*
X150607143Y-99071429D01*
X150678572Y-98785714D01*
X150750000Y-98642857D01*
X150892858Y-98500000D01*
X151107143Y-98428571D01*
X151250000Y-98428571D01*
X151464286Y-98500000D01*
X151535715Y-98571429D01*
X151964286Y-98428571D02*
X152464286Y-99928571D01*
X152964286Y-98428571D01*
X216535715Y-83335714D02*
X216464286Y-83407143D01*
X216250000Y-83478571D01*
X216107143Y-83478571D01*
X215892858Y-83407143D01*
X215750000Y-83264286D01*
X215678572Y-83121429D01*
X215607143Y-82835714D01*
X215607143Y-82621429D01*
X215678572Y-82335714D01*
X215750000Y-82192857D01*
X215892858Y-82050000D01*
X216107143Y-81978571D01*
X216250000Y-81978571D01*
X216464286Y-82050000D01*
X216535715Y-82121429D01*
X216964286Y-81978571D02*
X217464286Y-83478571D01*
X217964286Y-81978571D01*
X220392857Y-83478571D02*
X219535714Y-83478571D01*
X219964286Y-83478571D02*
X219964286Y-81978571D01*
X219821429Y-82192857D01*
X219678571Y-82335714D01*
X219535714Y-82407143D01*
X217750000Y-85092857D02*
X217964286Y-85164286D01*
X218035714Y-85235714D01*
X218107143Y-85378571D01*
X218107143Y-85592857D01*
X218035714Y-85735714D01*
X217964286Y-85807143D01*
X217821428Y-85878571D01*
X217250000Y-85878571D01*
X217250000Y-84378571D01*
X217750000Y-84378571D01*
X217892857Y-84450000D01*
X217964286Y-84521429D01*
X218035714Y-84664286D01*
X218035714Y-84807143D01*
X217964286Y-84950000D01*
X217892857Y-85021429D01*
X217750000Y-85092857D01*
X217250000Y-85092857D01*
X218750000Y-85878571D02*
X218750000Y-84378571D01*
X211107144Y-99928571D02*
X210607144Y-99214286D01*
X210250001Y-99928571D02*
X210250001Y-98428571D01*
X210821429Y-98428571D01*
X210964287Y-98500000D01*
X211035715Y-98571429D01*
X211107144Y-98714286D01*
X211107144Y-98928571D01*
X211035715Y-99071429D01*
X210964287Y-99142857D01*
X210821429Y-99214286D01*
X210250001Y-99214286D01*
X211750001Y-99142857D02*
X212250001Y-99142857D01*
X212464287Y-99928571D02*
X211750001Y-99928571D01*
X211750001Y-98428571D01*
X212464287Y-98428571D01*
X213035715Y-99857143D02*
X213250001Y-99928571D01*
X213607144Y-99928571D01*
X213750001Y-99857143D01*
X213821430Y-99785714D01*
X213892858Y-99642857D01*
X213892858Y-99500000D01*
X213821430Y-99357143D01*
X213750001Y-99285714D01*
X213607144Y-99214286D01*
X213321430Y-99142857D01*
X213178572Y-99071429D01*
X213107144Y-99000000D01*
X213035715Y-98857143D01*
X213035715Y-98714286D01*
X213107144Y-98571429D01*
X213178572Y-98500000D01*
X213321430Y-98428571D01*
X213678572Y-98428571D01*
X213892858Y-98500000D01*
X216535715Y-99785714D02*
X216464286Y-99857143D01*
X216250000Y-99928571D01*
X216107143Y-99928571D01*
X215892858Y-99857143D01*
X215750000Y-99714286D01*
X215678572Y-99571429D01*
X215607143Y-99285714D01*
X215607143Y-99071429D01*
X215678572Y-98785714D01*
X215750000Y-98642857D01*
X215892858Y-98500000D01*
X216107143Y-98428571D01*
X216250000Y-98428571D01*
X216464286Y-98500000D01*
X216535715Y-98571429D01*
X216964286Y-98428571D02*
X217464286Y-99928571D01*
X217964286Y-98428571D01*
X184821429Y-57428571D02*
X184107143Y-57428571D01*
X184107143Y-55928571D01*
X185321429Y-56642857D02*
X185821429Y-56642857D01*
X186035715Y-57428571D02*
X185321429Y-57428571D01*
X185321429Y-55928571D01*
X186035715Y-55928571D01*
X186464286Y-55928571D02*
X186964286Y-57428571D01*
X187464286Y-55928571D01*
X187964286Y-56642857D02*
X188464286Y-56642857D01*
X188678572Y-57428571D02*
X187964286Y-57428571D01*
X187964286Y-55928571D01*
X188678572Y-55928571D01*
X190035715Y-57428571D02*
X189321429Y-57428571D01*
X189321429Y-55928571D01*
X191607143Y-56071429D02*
X191678572Y-56000000D01*
X191821429Y-55928571D01*
X192178572Y-55928571D01*
X192321429Y-56000000D01*
X192392858Y-56071429D01*
X192464286Y-56214286D01*
X192464286Y-56357143D01*
X192392858Y-56571429D01*
X191535715Y-57428571D01*
X192464286Y-57428571D01*
X195035715Y-83335714D02*
X194964286Y-83407143D01*
X194750000Y-83478571D01*
X194607143Y-83478571D01*
X194392858Y-83407143D01*
X194250000Y-83264286D01*
X194178572Y-83121429D01*
X194107143Y-82835714D01*
X194107143Y-82621429D01*
X194178572Y-82335714D01*
X194250000Y-82192857D01*
X194392858Y-82050000D01*
X194607143Y-81978571D01*
X194750000Y-81978571D01*
X194964286Y-82050000D01*
X195035715Y-82121429D01*
X195464286Y-81978571D02*
X195964286Y-83478571D01*
X196464286Y-81978571D01*
X198035714Y-82121429D02*
X198107143Y-82050000D01*
X198250000Y-81978571D01*
X198607143Y-81978571D01*
X198750000Y-82050000D01*
X198821429Y-82121429D01*
X198892857Y-82264286D01*
X198892857Y-82407143D01*
X198821429Y-82621429D01*
X197964286Y-83478571D01*
X198892857Y-83478571D01*
X194928571Y-84378571D02*
X194928571Y-85592857D01*
X194999999Y-85735714D01*
X195071428Y-85807143D01*
X195214285Y-85878571D01*
X195499999Y-85878571D01*
X195642857Y-85807143D01*
X195714285Y-85735714D01*
X195785714Y-85592857D01*
X195785714Y-84378571D01*
X196500000Y-85878571D02*
X196500000Y-84378571D01*
X197357143Y-85878571D01*
X197357143Y-84378571D01*
X198071429Y-85878571D02*
X198071429Y-84378571D01*
X184178572Y-99928571D02*
X184178572Y-98428571D01*
X184892858Y-99928571D02*
X184892858Y-98428571D01*
X185750001Y-99928571D01*
X185750001Y-98428571D01*
X187535715Y-98571429D02*
X187607144Y-98500000D01*
X187750001Y-98428571D01*
X188107144Y-98428571D01*
X188250001Y-98500000D01*
X188321430Y-98571429D01*
X188392858Y-98714286D01*
X188392858Y-98857143D01*
X188321430Y-99071429D01*
X187464287Y-99928571D01*
X188392858Y-99928571D01*
X198500000Y-98428571D02*
X198785714Y-98428571D01*
X198928572Y-98500000D01*
X199071429Y-98642857D01*
X199142857Y-98928571D01*
X199142857Y-99428571D01*
X199071429Y-99714286D01*
X198928572Y-99857143D01*
X198785714Y-99928571D01*
X198500000Y-99928571D01*
X198357143Y-99857143D01*
X198214286Y-99714286D01*
X198142857Y-99428571D01*
X198142857Y-98928571D01*
X198214286Y-98642857D01*
X198357143Y-98500000D01*
X198500000Y-98428571D01*
X199785715Y-98428571D02*
X199785715Y-99642857D01*
X199857143Y-99785714D01*
X199928572Y-99857143D01*
X200071429Y-99928571D01*
X200357143Y-99928571D01*
X200500001Y-99857143D01*
X200571429Y-99785714D01*
X200642858Y-99642857D01*
X200642858Y-98428571D01*
X201142858Y-98428571D02*
X202000001Y-98428571D01*
X201571430Y-99928571D02*
X201571430Y-98428571D01*
X233235714Y-51778571D02*
X233235714Y-50278571D01*
X233735714Y-51350000D01*
X234235714Y-50278571D01*
X234235714Y-51778571D01*
X236092857Y-51778571D02*
X236092857Y-50278571D01*
X237950000Y-51778571D02*
X237950000Y-50278571D01*
X238450000Y-51350000D01*
X238950000Y-50278571D01*
X238950000Y-51778571D01*
X241092857Y-50278571D02*
X241378571Y-50278571D01*
X241521429Y-50350000D01*
X241664286Y-50492857D01*
X241735714Y-50778571D01*
X241735714Y-51278571D01*
X241664286Y-51564286D01*
X241521429Y-51707143D01*
X241378571Y-51778571D01*
X241092857Y-51778571D01*
X240950000Y-51707143D01*
X240807143Y-51564286D01*
X240735714Y-51278571D01*
X240735714Y-50778571D01*
X240807143Y-50492857D01*
X240950000Y-50350000D01*
X241092857Y-50278571D01*
X243521429Y-51778571D02*
X243521429Y-50278571D01*
X245378572Y-51778571D02*
X245378572Y-50278571D01*
X245735715Y-50278571D01*
X245950000Y-50350000D01*
X246092858Y-50492857D01*
X246164286Y-50635714D01*
X246235715Y-50921429D01*
X246235715Y-51135714D01*
X246164286Y-51421429D01*
X246092858Y-51564286D01*
X245950000Y-51707143D01*
X245735715Y-51778571D01*
X245378572Y-51778571D01*
X249178572Y-99928571D02*
X249178572Y-98428571D01*
X249892858Y-99928571D02*
X249892858Y-98428571D01*
X250750001Y-99928571D01*
X250750001Y-98428571D01*
X252535715Y-98571429D02*
X252607144Y-98500000D01*
X252750001Y-98428571D01*
X253107144Y-98428571D01*
X253250001Y-98500000D01*
X253321430Y-98571429D01*
X253392858Y-98714286D01*
X253392858Y-98857143D01*
X253321430Y-99071429D01*
X252464287Y-99928571D01*
X253392858Y-99928571D01*
X225928572Y-100178571D02*
X225928572Y-98678571D01*
X226642858Y-100178571D02*
X226642858Y-98678571D01*
X227500001Y-100178571D01*
X227500001Y-98678571D01*
X230142858Y-100178571D02*
X229285715Y-100178571D01*
X229714287Y-100178571D02*
X229714287Y-98678571D01*
X229571430Y-98892857D01*
X229428572Y-99035714D01*
X229285715Y-99107143D01*
X263500000Y-98428571D02*
X263785714Y-98428571D01*
X263928572Y-98500000D01*
X264071429Y-98642857D01*
X264142857Y-98928571D01*
X264142857Y-99428571D01*
X264071429Y-99714286D01*
X263928572Y-99857143D01*
X263785714Y-99928571D01*
X263500000Y-99928571D01*
X263357143Y-99857143D01*
X263214286Y-99714286D01*
X263142857Y-99428571D01*
X263142857Y-98928571D01*
X263214286Y-98642857D01*
X263357143Y-98500000D01*
X263500000Y-98428571D01*
X264785715Y-98428571D02*
X264785715Y-99642857D01*
X264857143Y-99785714D01*
X264928572Y-99857143D01*
X265071429Y-99928571D01*
X265357143Y-99928571D01*
X265500001Y-99857143D01*
X265571429Y-99785714D01*
X265642858Y-99642857D01*
X265642858Y-98428571D01*
X266142858Y-98428571D02*
X267000001Y-98428571D01*
X266571430Y-99928571D02*
X266571430Y-98428571D01*
X260035715Y-83335714D02*
X259964286Y-83407143D01*
X259750000Y-83478571D01*
X259607143Y-83478571D01*
X259392858Y-83407143D01*
X259250000Y-83264286D01*
X259178572Y-83121429D01*
X259107143Y-82835714D01*
X259107143Y-82621429D01*
X259178572Y-82335714D01*
X259250000Y-82192857D01*
X259392858Y-82050000D01*
X259607143Y-81978571D01*
X259750000Y-81978571D01*
X259964286Y-82050000D01*
X260035715Y-82121429D01*
X260464286Y-81978571D02*
X260964286Y-83478571D01*
X261464286Y-81978571D01*
X263035714Y-82121429D02*
X263107143Y-82050000D01*
X263250000Y-81978571D01*
X263607143Y-81978571D01*
X263750000Y-82050000D01*
X263821429Y-82121429D01*
X263892857Y-82264286D01*
X263892857Y-82407143D01*
X263821429Y-82621429D01*
X262964286Y-83478571D01*
X263892857Y-83478571D01*
X259928571Y-84378571D02*
X259928571Y-85592857D01*
X259999999Y-85735714D01*
X260071428Y-85807143D01*
X260214285Y-85878571D01*
X260499999Y-85878571D01*
X260642857Y-85807143D01*
X260714285Y-85735714D01*
X260785714Y-85592857D01*
X260785714Y-84378571D01*
X261500000Y-85878571D02*
X261500000Y-84378571D01*
X262357143Y-85878571D01*
X262357143Y-84378571D01*
X263071429Y-85878571D02*
X263071429Y-84378571D01*
X249821429Y-57428571D02*
X249107143Y-57428571D01*
X249107143Y-55928571D01*
X250321429Y-56642857D02*
X250821429Y-56642857D01*
X251035715Y-57428571D02*
X250321429Y-57428571D01*
X250321429Y-55928571D01*
X251035715Y-55928571D01*
X251464286Y-55928571D02*
X251964286Y-57428571D01*
X252464286Y-55928571D01*
X252964286Y-56642857D02*
X253464286Y-56642857D01*
X253678572Y-57428571D02*
X252964286Y-57428571D01*
X252964286Y-55928571D01*
X253678572Y-55928571D01*
X255035715Y-57428571D02*
X254321429Y-57428571D01*
X254321429Y-55928571D01*
X256607143Y-56071429D02*
X256678572Y-56000000D01*
X256821429Y-55928571D01*
X257178572Y-55928571D01*
X257321429Y-56000000D01*
X257392858Y-56071429D01*
X257464286Y-56214286D01*
X257464286Y-56357143D01*
X257392858Y-56571429D01*
X256535715Y-57428571D01*
X257464286Y-57428571D01*
X230250000Y-14892857D02*
X229750000Y-14892857D01*
X229750000Y-15678571D02*
X229750000Y-14178571D01*
X230464286Y-14178571D01*
X231892857Y-15678571D02*
X231392857Y-14964286D01*
X231035714Y-15678571D02*
X231035714Y-14178571D01*
X231607142Y-14178571D01*
X231750000Y-14250000D01*
X231821428Y-14321429D01*
X231892857Y-14464286D01*
X231892857Y-14678571D01*
X231821428Y-14821429D01*
X231750000Y-14892857D01*
X231607142Y-14964286D01*
X231035714Y-14964286D01*
X232535714Y-14892857D02*
X233035714Y-14892857D01*
X233250000Y-15678571D02*
X232535714Y-15678571D01*
X232535714Y-14178571D01*
X233250000Y-14178571D01*
X234892857Y-15821429D02*
X234750000Y-15750000D01*
X234607143Y-15607143D01*
X234392857Y-15392857D01*
X234250000Y-15321429D01*
X234107143Y-15321429D01*
X234178571Y-15678571D02*
X234035714Y-15607143D01*
X233892857Y-15464286D01*
X233821428Y-15178571D01*
X233821428Y-14678571D01*
X233892857Y-14392857D01*
X234035714Y-14250000D01*
X234178571Y-14178571D01*
X234464285Y-14178571D01*
X234607143Y-14250000D01*
X234750000Y-14392857D01*
X234821428Y-14678571D01*
X234821428Y-15178571D01*
X234750000Y-15464286D01*
X234607143Y-15607143D01*
X234464285Y-15678571D01*
X234178571Y-15678571D01*
X182035714Y-15678571D02*
X182035714Y-14178571D01*
X182535714Y-15250000D01*
X183035714Y-14178571D01*
X183035714Y-15678571D01*
X184035714Y-14178571D02*
X184321428Y-14178571D01*
X184464286Y-14250000D01*
X184607143Y-14392857D01*
X184678571Y-14678571D01*
X184678571Y-15178571D01*
X184607143Y-15464286D01*
X184464286Y-15607143D01*
X184321428Y-15678571D01*
X184035714Y-15678571D01*
X183892857Y-15607143D01*
X183750000Y-15464286D01*
X183678571Y-15178571D01*
X183678571Y-14678571D01*
X183750000Y-14392857D01*
X183892857Y-14250000D01*
X184035714Y-14178571D01*
X185321429Y-15678571D02*
X185321429Y-14178571D01*
X185678572Y-14178571D01*
X185892857Y-14250000D01*
X186035715Y-14392857D01*
X186107143Y-14535714D01*
X186178572Y-14821429D01*
X186178572Y-15035714D01*
X186107143Y-15321429D01*
X186035715Y-15464286D01*
X185892857Y-15607143D01*
X185678572Y-15678571D01*
X185321429Y-15678571D01*
X186821429Y-14892857D02*
X187321429Y-14892857D01*
X187535715Y-15678571D02*
X186821429Y-15678571D01*
X186821429Y-14178571D01*
X187535715Y-14178571D01*
X247035714Y-15678571D02*
X247035714Y-14178571D01*
X247535714Y-15250000D01*
X248035714Y-14178571D01*
X248035714Y-15678571D01*
X249035714Y-14178571D02*
X249321428Y-14178571D01*
X249464286Y-14250000D01*
X249607143Y-14392857D01*
X249678571Y-14678571D01*
X249678571Y-15178571D01*
X249607143Y-15464286D01*
X249464286Y-15607143D01*
X249321428Y-15678571D01*
X249035714Y-15678571D01*
X248892857Y-15607143D01*
X248750000Y-15464286D01*
X248678571Y-15178571D01*
X248678571Y-14678571D01*
X248750000Y-14392857D01*
X248892857Y-14250000D01*
X249035714Y-14178571D01*
X250321429Y-15678571D02*
X250321429Y-14178571D01*
X250678572Y-14178571D01*
X250892857Y-14250000D01*
X251035715Y-14392857D01*
X251107143Y-14535714D01*
X251178572Y-14821429D01*
X251178572Y-15035714D01*
X251107143Y-15321429D01*
X251035715Y-15464286D01*
X250892857Y-15607143D01*
X250678572Y-15678571D01*
X250321429Y-15678571D01*
X251821429Y-14892857D02*
X252321429Y-14892857D01*
X252535715Y-15678571D02*
X251821429Y-15678571D01*
X251821429Y-14178571D01*
X252535715Y-14178571D01*
X81107144Y-99928571D02*
X80607144Y-99214286D01*
X80250001Y-99928571D02*
X80250001Y-98428571D01*
X80821429Y-98428571D01*
X80964287Y-98500000D01*
X81035715Y-98571429D01*
X81107144Y-98714286D01*
X81107144Y-98928571D01*
X81035715Y-99071429D01*
X80964287Y-99142857D01*
X80821429Y-99214286D01*
X80250001Y-99214286D01*
X81750001Y-99142857D02*
X82250001Y-99142857D01*
X82464287Y-99928571D02*
X81750001Y-99928571D01*
X81750001Y-98428571D01*
X82464287Y-98428571D01*
X83035715Y-99857143D02*
X83250001Y-99928571D01*
X83607144Y-99928571D01*
X83750001Y-99857143D01*
X83821430Y-99785714D01*
X83892858Y-99642857D01*
X83892858Y-99500000D01*
X83821430Y-99357143D01*
X83750001Y-99285714D01*
X83607144Y-99214286D01*
X83321430Y-99142857D01*
X83178572Y-99071429D01*
X83107144Y-99000000D01*
X83035715Y-98857143D01*
X83035715Y-98714286D01*
X83107144Y-98571429D01*
X83178572Y-98500000D01*
X83321430Y-98428571D01*
X83678572Y-98428571D01*
X83892858Y-98500000D01*
X86535715Y-99785714D02*
X86464286Y-99857143D01*
X86250000Y-99928571D01*
X86107143Y-99928571D01*
X85892858Y-99857143D01*
X85750000Y-99714286D01*
X85678572Y-99571429D01*
X85607143Y-99285714D01*
X85607143Y-99071429D01*
X85678572Y-98785714D01*
X85750000Y-98642857D01*
X85892858Y-98500000D01*
X86107143Y-98428571D01*
X86250000Y-98428571D01*
X86464286Y-98500000D01*
X86535715Y-98571429D01*
X86964286Y-98428571D02*
X87464286Y-99928571D01*
X87964286Y-98428571D01*
X95928572Y-100178571D02*
X95928572Y-98678571D01*
X96642858Y-100178571D02*
X96642858Y-98678571D01*
X97500001Y-100178571D01*
X97500001Y-98678571D01*
X100142858Y-100178571D02*
X99285715Y-100178571D01*
X99714287Y-100178571D02*
X99714287Y-98678571D01*
X99571430Y-98892857D01*
X99428572Y-99035714D01*
X99285715Y-99107143D01*
X94821429Y-57178571D02*
X94321429Y-56464286D01*
X93964286Y-57178571D02*
X93964286Y-55678571D01*
X94535714Y-55678571D01*
X94678572Y-55750000D01*
X94750000Y-55821429D01*
X94821429Y-55964286D01*
X94821429Y-56178571D01*
X94750000Y-56321429D01*
X94678572Y-56392857D01*
X94535714Y-56464286D01*
X93964286Y-56464286D01*
X95464286Y-56392857D02*
X95964286Y-56392857D01*
X96178572Y-57178571D02*
X95464286Y-57178571D01*
X95464286Y-55678571D01*
X96178572Y-55678571D01*
X96750000Y-57107143D02*
X96964286Y-57178571D01*
X97321429Y-57178571D01*
X97464286Y-57107143D01*
X97535715Y-57035714D01*
X97607143Y-56892857D01*
X97607143Y-56750000D01*
X97535715Y-56607143D01*
X97464286Y-56535714D01*
X97321429Y-56464286D01*
X97035715Y-56392857D01*
X96892857Y-56321429D01*
X96821429Y-56250000D01*
X96750000Y-56107143D01*
X96750000Y-55964286D01*
X96821429Y-55821429D01*
X96892857Y-55750000D01*
X97035715Y-55678571D01*
X97392857Y-55678571D01*
X97607143Y-55750000D01*
X86535715Y-83335714D02*
X86464286Y-83407143D01*
X86250000Y-83478571D01*
X86107143Y-83478571D01*
X85892858Y-83407143D01*
X85750000Y-83264286D01*
X85678572Y-83121429D01*
X85607143Y-82835714D01*
X85607143Y-82621429D01*
X85678572Y-82335714D01*
X85750000Y-82192857D01*
X85892858Y-82050000D01*
X86107143Y-81978571D01*
X86250000Y-81978571D01*
X86464286Y-82050000D01*
X86535715Y-82121429D01*
X86964286Y-81978571D02*
X87464286Y-83478571D01*
X87964286Y-81978571D01*
X90392857Y-83478571D02*
X89535714Y-83478571D01*
X89964286Y-83478571D02*
X89964286Y-81978571D01*
X89821429Y-82192857D01*
X89678571Y-82335714D01*
X89535714Y-82407143D01*
X87750000Y-85092857D02*
X87964286Y-85164286D01*
X88035714Y-85235714D01*
X88107143Y-85378571D01*
X88107143Y-85592857D01*
X88035714Y-85735714D01*
X87964286Y-85807143D01*
X87821428Y-85878571D01*
X87250000Y-85878571D01*
X87250000Y-84378571D01*
X87750000Y-84378571D01*
X87892857Y-84450000D01*
X87964286Y-84521429D01*
X88035714Y-84664286D01*
X88035714Y-84807143D01*
X87964286Y-84950000D01*
X87892857Y-85021429D01*
X87750000Y-85092857D01*
X87250000Y-85092857D01*
X88750000Y-85878571D02*
X88750000Y-84378571D01*
X133500000Y-98428571D02*
X133785714Y-98428571D01*
X133928572Y-98500000D01*
X134071429Y-98642857D01*
X134142857Y-98928571D01*
X134142857Y-99428571D01*
X134071429Y-99714286D01*
X133928572Y-99857143D01*
X133785714Y-99928571D01*
X133500000Y-99928571D01*
X133357143Y-99857143D01*
X133214286Y-99714286D01*
X133142857Y-99428571D01*
X133142857Y-98928571D01*
X133214286Y-98642857D01*
X133357143Y-98500000D01*
X133500000Y-98428571D01*
X134785715Y-98428571D02*
X134785715Y-99642857D01*
X134857143Y-99785714D01*
X134928572Y-99857143D01*
X135071429Y-99928571D01*
X135357143Y-99928571D01*
X135500001Y-99857143D01*
X135571429Y-99785714D01*
X135642858Y-99642857D01*
X135642858Y-98428571D01*
X136142858Y-98428571D02*
X137000001Y-98428571D01*
X136571430Y-99928571D02*
X136571430Y-98428571D01*
X130035715Y-83335714D02*
X129964286Y-83407143D01*
X129750000Y-83478571D01*
X129607143Y-83478571D01*
X129392858Y-83407143D01*
X129250000Y-83264286D01*
X129178572Y-83121429D01*
X129107143Y-82835714D01*
X129107143Y-82621429D01*
X129178572Y-82335714D01*
X129250000Y-82192857D01*
X129392858Y-82050000D01*
X129607143Y-81978571D01*
X129750000Y-81978571D01*
X129964286Y-82050000D01*
X130035715Y-82121429D01*
X130464286Y-81978571D02*
X130964286Y-83478571D01*
X131464286Y-81978571D01*
X133035714Y-82121429D02*
X133107143Y-82050000D01*
X133250000Y-81978571D01*
X133607143Y-81978571D01*
X133750000Y-82050000D01*
X133821429Y-82121429D01*
X133892857Y-82264286D01*
X133892857Y-82407143D01*
X133821429Y-82621429D01*
X132964286Y-83478571D01*
X133892857Y-83478571D01*
X129928571Y-84378571D02*
X129928571Y-85592857D01*
X129999999Y-85735714D01*
X130071428Y-85807143D01*
X130214285Y-85878571D01*
X130499999Y-85878571D01*
X130642857Y-85807143D01*
X130714285Y-85735714D01*
X130785714Y-85592857D01*
X130785714Y-84378571D01*
X131500000Y-85878571D02*
X131500000Y-84378571D01*
X132357143Y-85878571D01*
X132357143Y-84378571D01*
X133071429Y-85878571D02*
X133071429Y-84378571D01*
X119178572Y-99928571D02*
X119178572Y-98428571D01*
X119892858Y-99928571D02*
X119892858Y-98428571D01*
X120750001Y-99928571D01*
X120750001Y-98428571D01*
X122535715Y-98571429D02*
X122607144Y-98500000D01*
X122750001Y-98428571D01*
X123107144Y-98428571D01*
X123250001Y-98500000D01*
X123321430Y-98571429D01*
X123392858Y-98714286D01*
X123392858Y-98857143D01*
X123321430Y-99071429D01*
X122464287Y-99928571D01*
X123392858Y-99928571D01*
X103235714Y-51778571D02*
X103235714Y-50278571D01*
X103735714Y-51350000D01*
X104235714Y-50278571D01*
X104235714Y-51778571D01*
X106092857Y-51778571D02*
X106092857Y-50278571D01*
X107950000Y-51778571D02*
X107950000Y-50278571D01*
X108450000Y-51350000D01*
X108950000Y-50278571D01*
X108950000Y-51778571D01*
X111092857Y-50278571D02*
X111378571Y-50278571D01*
X111521429Y-50350000D01*
X111664286Y-50492857D01*
X111735714Y-50778571D01*
X111735714Y-51278571D01*
X111664286Y-51564286D01*
X111521429Y-51707143D01*
X111378571Y-51778571D01*
X111092857Y-51778571D01*
X110950000Y-51707143D01*
X110807143Y-51564286D01*
X110735714Y-51278571D01*
X110735714Y-50778571D01*
X110807143Y-50492857D01*
X110950000Y-50350000D01*
X111092857Y-50278571D01*
X113521429Y-51778571D02*
X113521429Y-50278571D01*
X115378572Y-51778571D02*
X115378572Y-50278571D01*
X115735715Y-50278571D01*
X115950000Y-50350000D01*
X116092858Y-50492857D01*
X116164286Y-50635714D01*
X116235715Y-50921429D01*
X116235715Y-51135714D01*
X116164286Y-51421429D01*
X116092858Y-51564286D01*
X115950000Y-51707143D01*
X115735715Y-51778571D01*
X115378572Y-51778571D01*
X119821429Y-57428571D02*
X119107143Y-57428571D01*
X119107143Y-55928571D01*
X120321429Y-56642857D02*
X120821429Y-56642857D01*
X121035715Y-57428571D02*
X120321429Y-57428571D01*
X120321429Y-55928571D01*
X121035715Y-55928571D01*
X121464286Y-55928571D02*
X121964286Y-57428571D01*
X122464286Y-55928571D01*
X122964286Y-56642857D02*
X123464286Y-56642857D01*
X123678572Y-57428571D02*
X122964286Y-57428571D01*
X122964286Y-55928571D01*
X123678572Y-55928571D01*
X125035715Y-57428571D02*
X124321429Y-57428571D01*
X124321429Y-55928571D01*
X126607143Y-56071429D02*
X126678572Y-56000000D01*
X126821429Y-55928571D01*
X127178572Y-55928571D01*
X127321429Y-56000000D01*
X127392858Y-56071429D01*
X127464286Y-56214286D01*
X127464286Y-56357143D01*
X127392858Y-56571429D01*
X126535715Y-57428571D01*
X127464286Y-57428571D01*
X117035714Y-15678571D02*
X117035714Y-14178571D01*
X117535714Y-15250000D01*
X118035714Y-14178571D01*
X118035714Y-15678571D01*
X119035714Y-14178571D02*
X119321428Y-14178571D01*
X119464286Y-14250000D01*
X119607143Y-14392857D01*
X119678571Y-14678571D01*
X119678571Y-15178571D01*
X119607143Y-15464286D01*
X119464286Y-15607143D01*
X119321428Y-15678571D01*
X119035714Y-15678571D01*
X118892857Y-15607143D01*
X118750000Y-15464286D01*
X118678571Y-15178571D01*
X118678571Y-14678571D01*
X118750000Y-14392857D01*
X118892857Y-14250000D01*
X119035714Y-14178571D01*
X120321429Y-15678571D02*
X120321429Y-14178571D01*
X120678572Y-14178571D01*
X120892857Y-14250000D01*
X121035715Y-14392857D01*
X121107143Y-14535714D01*
X121178572Y-14821429D01*
X121178572Y-15035714D01*
X121107143Y-15321429D01*
X121035715Y-15464286D01*
X120892857Y-15607143D01*
X120678572Y-15678571D01*
X120321429Y-15678571D01*
X121821429Y-14892857D02*
X122321429Y-14892857D01*
X122535715Y-15678571D02*
X121821429Y-15678571D01*
X121821429Y-14178571D01*
X122535715Y-14178571D01*
X100250000Y-14892857D02*
X99750000Y-14892857D01*
X99750000Y-15678571D02*
X99750000Y-14178571D01*
X100464286Y-14178571D01*
X101892857Y-15678571D02*
X101392857Y-14964286D01*
X101035714Y-15678571D02*
X101035714Y-14178571D01*
X101607142Y-14178571D01*
X101750000Y-14250000D01*
X101821428Y-14321429D01*
X101892857Y-14464286D01*
X101892857Y-14678571D01*
X101821428Y-14821429D01*
X101750000Y-14892857D01*
X101607142Y-14964286D01*
X101035714Y-14964286D01*
X102535714Y-14892857D02*
X103035714Y-14892857D01*
X103250000Y-15678571D02*
X102535714Y-15678571D01*
X102535714Y-14178571D01*
X103250000Y-14178571D01*
X104892857Y-15821429D02*
X104750000Y-15750000D01*
X104607143Y-15607143D01*
X104392857Y-15392857D01*
X104250000Y-15321429D01*
X104107143Y-15321429D01*
X104178571Y-15678571D02*
X104035714Y-15607143D01*
X103892857Y-15464286D01*
X103821428Y-15178571D01*
X103821428Y-14678571D01*
X103892857Y-14392857D01*
X104035714Y-14250000D01*
X104178571Y-14178571D01*
X104464285Y-14178571D01*
X104607143Y-14250000D01*
X104750000Y-14392857D01*
X104821428Y-14678571D01*
X104821428Y-15178571D01*
X104750000Y-15464286D01*
X104607143Y-15607143D01*
X104464285Y-15678571D01*
X104178571Y-15678571D01*
X52035714Y-15678571D02*
X52035714Y-14178571D01*
X52535714Y-15250000D01*
X53035714Y-14178571D01*
X53035714Y-15678571D01*
X54035714Y-14178571D02*
X54321428Y-14178571D01*
X54464286Y-14250000D01*
X54607143Y-14392857D01*
X54678571Y-14678571D01*
X54678571Y-15178571D01*
X54607143Y-15464286D01*
X54464286Y-15607143D01*
X54321428Y-15678571D01*
X54035714Y-15678571D01*
X53892857Y-15607143D01*
X53750000Y-15464286D01*
X53678571Y-15178571D01*
X53678571Y-14678571D01*
X53750000Y-14392857D01*
X53892857Y-14250000D01*
X54035714Y-14178571D01*
X55321429Y-15678571D02*
X55321429Y-14178571D01*
X55678572Y-14178571D01*
X55892857Y-14250000D01*
X56035715Y-14392857D01*
X56107143Y-14535714D01*
X56178572Y-14821429D01*
X56178572Y-15035714D01*
X56107143Y-15321429D01*
X56035715Y-15464286D01*
X55892857Y-15607143D01*
X55678572Y-15678571D01*
X55321429Y-15678571D01*
X56821429Y-14892857D02*
X57321429Y-14892857D01*
X57535715Y-15678571D02*
X56821429Y-15678571D01*
X56821429Y-14178571D01*
X57535715Y-14178571D01*
X35250000Y-14892857D02*
X34750000Y-14892857D01*
X34750000Y-15678571D02*
X34750000Y-14178571D01*
X35464286Y-14178571D01*
X36892857Y-15678571D02*
X36392857Y-14964286D01*
X36035714Y-15678571D02*
X36035714Y-14178571D01*
X36607142Y-14178571D01*
X36750000Y-14250000D01*
X36821428Y-14321429D01*
X36892857Y-14464286D01*
X36892857Y-14678571D01*
X36821428Y-14821429D01*
X36750000Y-14892857D01*
X36607142Y-14964286D01*
X36035714Y-14964286D01*
X37535714Y-14892857D02*
X38035714Y-14892857D01*
X38250000Y-15678571D02*
X37535714Y-15678571D01*
X37535714Y-14178571D01*
X38250000Y-14178571D01*
X39892857Y-15821429D02*
X39750000Y-15750000D01*
X39607143Y-15607143D01*
X39392857Y-15392857D01*
X39250000Y-15321429D01*
X39107143Y-15321429D01*
X39178571Y-15678571D02*
X39035714Y-15607143D01*
X38892857Y-15464286D01*
X38821428Y-15178571D01*
X38821428Y-14678571D01*
X38892857Y-14392857D01*
X39035714Y-14250000D01*
X39178571Y-14178571D01*
X39464285Y-14178571D01*
X39607143Y-14250000D01*
X39750000Y-14392857D01*
X39821428Y-14678571D01*
X39821428Y-15178571D01*
X39750000Y-15464286D01*
X39607143Y-15607143D01*
X39464285Y-15678571D01*
X39178571Y-15678571D01*
X29821429Y-57178571D02*
X29321429Y-56464286D01*
X28964286Y-57178571D02*
X28964286Y-55678571D01*
X29535714Y-55678571D01*
X29678572Y-55750000D01*
X29750000Y-55821429D01*
X29821429Y-55964286D01*
X29821429Y-56178571D01*
X29750000Y-56321429D01*
X29678572Y-56392857D01*
X29535714Y-56464286D01*
X28964286Y-56464286D01*
X30464286Y-56392857D02*
X30964286Y-56392857D01*
X31178572Y-57178571D02*
X30464286Y-57178571D01*
X30464286Y-55678571D01*
X31178572Y-55678571D01*
X31750000Y-57107143D02*
X31964286Y-57178571D01*
X32321429Y-57178571D01*
X32464286Y-57107143D01*
X32535715Y-57035714D01*
X32607143Y-56892857D01*
X32607143Y-56750000D01*
X32535715Y-56607143D01*
X32464286Y-56535714D01*
X32321429Y-56464286D01*
X32035715Y-56392857D01*
X31892857Y-56321429D01*
X31821429Y-56250000D01*
X31750000Y-56107143D01*
X31750000Y-55964286D01*
X31821429Y-55821429D01*
X31892857Y-55750000D01*
X32035715Y-55678571D01*
X32392857Y-55678571D01*
X32607143Y-55750000D01*
X54821429Y-57428571D02*
X54107143Y-57428571D01*
X54107143Y-55928571D01*
X55321429Y-56642857D02*
X55821429Y-56642857D01*
X56035715Y-57428571D02*
X55321429Y-57428571D01*
X55321429Y-55928571D01*
X56035715Y-55928571D01*
X56464286Y-55928571D02*
X56964286Y-57428571D01*
X57464286Y-55928571D01*
X57964286Y-56642857D02*
X58464286Y-56642857D01*
X58678572Y-57428571D02*
X57964286Y-57428571D01*
X57964286Y-55928571D01*
X58678572Y-55928571D01*
X60035715Y-57428571D02*
X59321429Y-57428571D01*
X59321429Y-55928571D01*
X61607143Y-56071429D02*
X61678572Y-56000000D01*
X61821429Y-55928571D01*
X62178572Y-55928571D01*
X62321429Y-56000000D01*
X62392858Y-56071429D01*
X62464286Y-56214286D01*
X62464286Y-56357143D01*
X62392858Y-56571429D01*
X61535715Y-57428571D01*
X62464286Y-57428571D01*
X68500000Y-98428571D02*
X68785714Y-98428571D01*
X68928572Y-98500000D01*
X69071429Y-98642857D01*
X69142857Y-98928571D01*
X69142857Y-99428571D01*
X69071429Y-99714286D01*
X68928572Y-99857143D01*
X68785714Y-99928571D01*
X68500000Y-99928571D01*
X68357143Y-99857143D01*
X68214286Y-99714286D01*
X68142857Y-99428571D01*
X68142857Y-98928571D01*
X68214286Y-98642857D01*
X68357143Y-98500000D01*
X68500000Y-98428571D01*
X69785715Y-98428571D02*
X69785715Y-99642857D01*
X69857143Y-99785714D01*
X69928572Y-99857143D01*
X70071429Y-99928571D01*
X70357143Y-99928571D01*
X70500001Y-99857143D01*
X70571429Y-99785714D01*
X70642858Y-99642857D01*
X70642858Y-98428571D01*
X71142858Y-98428571D02*
X72000001Y-98428571D01*
X71571430Y-99928571D02*
X71571430Y-98428571D01*
X54178572Y-99928571D02*
X54178572Y-98428571D01*
X54892858Y-99928571D02*
X54892858Y-98428571D01*
X55750001Y-99928571D01*
X55750001Y-98428571D01*
X57535715Y-98571429D02*
X57607144Y-98500000D01*
X57750001Y-98428571D01*
X58107144Y-98428571D01*
X58250001Y-98500000D01*
X58321430Y-98571429D01*
X58392858Y-98714286D01*
X58392858Y-98857143D01*
X58321430Y-99071429D01*
X57464287Y-99928571D01*
X58392858Y-99928571D01*
X30928572Y-100178571D02*
X30928572Y-98678571D01*
X31642858Y-100178571D02*
X31642858Y-98678571D01*
X32500001Y-100178571D01*
X32500001Y-98678571D01*
X35142858Y-100178571D02*
X34285715Y-100178571D01*
X34714287Y-100178571D02*
X34714287Y-98678571D01*
X34571430Y-98892857D01*
X34428572Y-99035714D01*
X34285715Y-99107143D01*
X16107144Y-99928571D02*
X15607144Y-99214286D01*
X15250001Y-99928571D02*
X15250001Y-98428571D01*
X15821429Y-98428571D01*
X15964287Y-98500000D01*
X16035715Y-98571429D01*
X16107144Y-98714286D01*
X16107144Y-98928571D01*
X16035715Y-99071429D01*
X15964287Y-99142857D01*
X15821429Y-99214286D01*
X15250001Y-99214286D01*
X16750001Y-99142857D02*
X17250001Y-99142857D01*
X17464287Y-99928571D02*
X16750001Y-99928571D01*
X16750001Y-98428571D01*
X17464287Y-98428571D01*
X18035715Y-99857143D02*
X18250001Y-99928571D01*
X18607144Y-99928571D01*
X18750001Y-99857143D01*
X18821430Y-99785714D01*
X18892858Y-99642857D01*
X18892858Y-99500000D01*
X18821430Y-99357143D01*
X18750001Y-99285714D01*
X18607144Y-99214286D01*
X18321430Y-99142857D01*
X18178572Y-99071429D01*
X18107144Y-99000000D01*
X18035715Y-98857143D01*
X18035715Y-98714286D01*
X18107144Y-98571429D01*
X18178572Y-98500000D01*
X18321430Y-98428571D01*
X18678572Y-98428571D01*
X18892858Y-98500000D01*
X21535715Y-99785714D02*
X21464286Y-99857143D01*
X21250000Y-99928571D01*
X21107143Y-99928571D01*
X20892858Y-99857143D01*
X20750000Y-99714286D01*
X20678572Y-99571429D01*
X20607143Y-99285714D01*
X20607143Y-99071429D01*
X20678572Y-98785714D01*
X20750000Y-98642857D01*
X20892858Y-98500000D01*
X21107143Y-98428571D01*
X21250000Y-98428571D01*
X21464286Y-98500000D01*
X21535715Y-98571429D01*
X21964286Y-98428571D02*
X22464286Y-99928571D01*
X22964286Y-98428571D01*
X21535715Y-83335714D02*
X21464286Y-83407143D01*
X21250000Y-83478571D01*
X21107143Y-83478571D01*
X20892858Y-83407143D01*
X20750000Y-83264286D01*
X20678572Y-83121429D01*
X20607143Y-82835714D01*
X20607143Y-82621429D01*
X20678572Y-82335714D01*
X20750000Y-82192857D01*
X20892858Y-82050000D01*
X21107143Y-81978571D01*
X21250000Y-81978571D01*
X21464286Y-82050000D01*
X21535715Y-82121429D01*
X21964286Y-81978571D02*
X22464286Y-83478571D01*
X22964286Y-81978571D01*
X25392857Y-83478571D02*
X24535714Y-83478571D01*
X24964286Y-83478571D02*
X24964286Y-81978571D01*
X24821429Y-82192857D01*
X24678571Y-82335714D01*
X24535714Y-82407143D01*
X22750000Y-85092857D02*
X22964286Y-85164286D01*
X23035714Y-85235714D01*
X23107143Y-85378571D01*
X23107143Y-85592857D01*
X23035714Y-85735714D01*
X22964286Y-85807143D01*
X22821428Y-85878571D01*
X22250000Y-85878571D01*
X22250000Y-84378571D01*
X22750000Y-84378571D01*
X22892857Y-84450000D01*
X22964286Y-84521429D01*
X23035714Y-84664286D01*
X23035714Y-84807143D01*
X22964286Y-84950000D01*
X22892857Y-85021429D01*
X22750000Y-85092857D01*
X22250000Y-85092857D01*
X23750000Y-85878571D02*
X23750000Y-84378571D01*
X65035715Y-83335714D02*
X64964286Y-83407143D01*
X64750000Y-83478571D01*
X64607143Y-83478571D01*
X64392858Y-83407143D01*
X64250000Y-83264286D01*
X64178572Y-83121429D01*
X64107143Y-82835714D01*
X64107143Y-82621429D01*
X64178572Y-82335714D01*
X64250000Y-82192857D01*
X64392858Y-82050000D01*
X64607143Y-81978571D01*
X64750000Y-81978571D01*
X64964286Y-82050000D01*
X65035715Y-82121429D01*
X65464286Y-81978571D02*
X65964286Y-83478571D01*
X66464286Y-81978571D01*
X68035714Y-82121429D02*
X68107143Y-82050000D01*
X68250000Y-81978571D01*
X68607143Y-81978571D01*
X68750000Y-82050000D01*
X68821429Y-82121429D01*
X68892857Y-82264286D01*
X68892857Y-82407143D01*
X68821429Y-82621429D01*
X67964286Y-83478571D01*
X68892857Y-83478571D01*
X64928571Y-84378571D02*
X64928571Y-85592857D01*
X64999999Y-85735714D01*
X65071428Y-85807143D01*
X65214285Y-85878571D01*
X65499999Y-85878571D01*
X65642857Y-85807143D01*
X65714285Y-85735714D01*
X65785714Y-85592857D01*
X65785714Y-84378571D01*
X66500000Y-85878571D02*
X66500000Y-84378571D01*
X67357143Y-85878571D01*
X67357143Y-84378571D01*
X68071429Y-85878571D02*
X68071429Y-84378571D01*
X38235714Y-51778571D02*
X38235714Y-50278571D01*
X38735714Y-51350000D01*
X39235714Y-50278571D01*
X39235714Y-51778571D01*
X41092857Y-51778571D02*
X41092857Y-50278571D01*
X42950000Y-51778571D02*
X42950000Y-50278571D01*
X43450000Y-51350000D01*
X43950000Y-50278571D01*
X43950000Y-51778571D01*
X46092857Y-50278571D02*
X46378571Y-50278571D01*
X46521429Y-50350000D01*
X46664286Y-50492857D01*
X46735714Y-50778571D01*
X46735714Y-51278571D01*
X46664286Y-51564286D01*
X46521429Y-51707143D01*
X46378571Y-51778571D01*
X46092857Y-51778571D01*
X45950000Y-51707143D01*
X45807143Y-51564286D01*
X45735714Y-51278571D01*
X45735714Y-50778571D01*
X45807143Y-50492857D01*
X45950000Y-50350000D01*
X46092857Y-50278571D01*
X48521429Y-51778571D02*
X48521429Y-50278571D01*
X50378572Y-51778571D02*
X50378572Y-50278571D01*
X50735715Y-50278571D01*
X50950000Y-50350000D01*
X51092858Y-50492857D01*
X51164286Y-50635714D01*
X51235715Y-50921429D01*
X51235715Y-51135714D01*
X51164286Y-51421429D01*
X51092858Y-51564286D01*
X50950000Y-51707143D01*
X50735715Y-51778571D01*
X50378572Y-51778571D01*
D12*
X253915476Y-106500000D02*
G75*
G03X253915476Y-106500000I-2915476J0D01*
G01*
X256000000Y-111500000D02*
X246000000Y-111500000D01*
X246000000Y-111500000D02*
X246000000Y-100500000D01*
X246000000Y-100500000D02*
X256000000Y-100500000D01*
X256000000Y-100500000D02*
X256000000Y-111500000D01*
X253000000Y-106500000D02*
G75*
G03X253000000Y-106500000I-2000000J0D01*
G01*
X230915476Y-106500000D02*
G75*
G03X230915476Y-106500000I-2915476J0D01*
G01*
X233000000Y-111500000D02*
X223000000Y-111500000D01*
X223000000Y-111500000D02*
X223000000Y-100500000D01*
X223000000Y-100500000D02*
X233000000Y-100500000D01*
X233000000Y-100500000D02*
X233000000Y-111500000D01*
X230000000Y-106500000D02*
G75*
G03X230000000Y-106500000I-2000000J0D01*
G01*
X267915476Y-92500000D02*
G75*
G03X267915476Y-92500000I-2915476J0D01*
G01*
X270000000Y-97500000D02*
X260000000Y-97500000D01*
X260000000Y-97500000D02*
X260000000Y-86500000D01*
X260000000Y-86500000D02*
X270000000Y-86500000D01*
X270000000Y-86500000D02*
X270000000Y-97500000D01*
X267000000Y-92500000D02*
G75*
G03X267000000Y-92500000I-2000000J0D01*
G01*
X266913950Y-63571753D02*
X268634679Y-61114297D01*
X268634679Y-61114297D02*
X271911287Y-63408602D01*
X262818190Y-60703871D02*
X264538919Y-58246414D01*
X264538919Y-58246414D02*
X267815527Y-60540720D01*
X267815527Y-60540720D02*
X266094798Y-62998176D01*
X260443159Y-55378532D02*
X263719767Y-57672838D01*
X263719767Y-57672838D02*
X261999038Y-60130294D01*
X270190558Y-65866058D02*
X258722429Y-57835988D01*
X260443159Y-55378532D02*
X254133818Y-64389205D01*
X271911287Y-63408602D02*
X265601946Y-72419275D01*
X260000000Y-72500000D02*
G75*
G03X260000000Y-72500000I-3000000J0D01*
G01*
X265500000Y-72500000D02*
G75*
G03X265500000Y-72500000I-8500000J0D01*
G01*
X216915476Y-92500000D02*
G75*
G03X216915476Y-92500000I-2915476J0D01*
G01*
X219000000Y-97500000D02*
X209000000Y-97500000D01*
X209000000Y-97500000D02*
X209000000Y-86500000D01*
X209000000Y-86500000D02*
X219000000Y-86500000D01*
X219000000Y-86500000D02*
X219000000Y-97500000D01*
X216000000Y-92500000D02*
G75*
G03X216000000Y-92500000I-2000000J0D01*
G01*
X267915476Y-106500000D02*
G75*
G03X267915476Y-106500000I-2915476J0D01*
G01*
X270000000Y-111500000D02*
X260000000Y-111500000D01*
X260000000Y-111500000D02*
X260000000Y-100500000D01*
X260000000Y-100500000D02*
X270000000Y-100500000D01*
X270000000Y-100500000D02*
X270000000Y-111500000D01*
X267000000Y-106500000D02*
G75*
G03X267000000Y-106500000I-2000000J0D01*
G01*
X216915476Y-106500000D02*
G75*
G03X216915476Y-106500000I-2915476J0D01*
G01*
X219000000Y-111500000D02*
X209000000Y-111500000D01*
X209000000Y-111500000D02*
X209000000Y-100500000D01*
X209000000Y-100500000D02*
X219000000Y-100500000D01*
X219000000Y-100500000D02*
X219000000Y-111500000D01*
X216000000Y-106500000D02*
G75*
G03X216000000Y-106500000I-2000000J0D01*
G01*
X217000962Y-60130294D02*
X215280233Y-57672838D01*
X215280233Y-57672838D02*
X218556841Y-55378532D01*
X212905202Y-62998176D02*
X211184473Y-60540720D01*
X211184473Y-60540720D02*
X214461081Y-58246414D01*
X214461081Y-58246414D02*
X216181810Y-60703871D01*
X207088713Y-63408602D02*
X210365321Y-61114297D01*
X210365321Y-61114297D02*
X212086050Y-63571753D01*
X220277571Y-57835988D02*
X208809442Y-65866058D01*
X207088713Y-63408602D02*
X213398054Y-72419275D01*
X218556841Y-55378532D02*
X224866182Y-64389205D01*
X225000000Y-72500000D02*
G75*
G03X225000000Y-72500000I-3000000J0D01*
G01*
X230500000Y-72500000D02*
G75*
G03X230500000Y-72500000I-8500000J0D01*
G01*
X187000962Y-34130294D02*
X185280233Y-31672838D01*
X185280233Y-31672838D02*
X188556841Y-29378532D01*
X182905202Y-36998176D02*
X181184473Y-34540720D01*
X181184473Y-34540720D02*
X184461081Y-32246414D01*
X184461081Y-32246414D02*
X186181810Y-34703871D01*
X177088713Y-37408602D02*
X180365321Y-35114297D01*
X180365321Y-35114297D02*
X182086050Y-37571753D01*
X190277571Y-31835988D02*
X178809442Y-39866058D01*
X177088713Y-37408602D02*
X183398054Y-46419275D01*
X188556841Y-29378532D02*
X194866182Y-38389205D01*
X195000000Y-46500000D02*
G75*
G03X195000000Y-46500000I-3000000J0D01*
G01*
X200500000Y-46500000D02*
G75*
G03X200500000Y-46500000I-8500000J0D01*
G01*
X173200000Y-23000000D02*
X173000000Y-23000000D01*
X175700000Y-23000000D02*
X176000000Y-23000000D01*
X174100000Y-23000000D02*
X173200000Y-23000000D01*
X175700000Y-23000000D02*
X174800000Y-23000000D01*
X174100000Y-23500000D02*
X174100000Y-22500000D01*
X174800000Y-23500000D02*
X174800000Y-22500000D01*
X174800000Y-22500000D02*
X174100000Y-23000000D01*
X174100000Y-23000000D02*
X174800000Y-23500000D01*
X176000000Y-23000000D02*
G75*
G03X176000000Y-23000000I-1500000J0D01*
G01*
X194500000Y-15000000D02*
G75*
G03X186500000Y-18000000I-2500000J-5500000D01*
G01*
X197500000Y-18000000D02*
G75*
G03X189500000Y-15000000I-5500000J-2500000D01*
G01*
X194500000Y-26000000D02*
G75*
G03X197500000Y-18000000I-2500000J5500000D01*
G01*
X186500000Y-18000000D02*
G75*
G03X189500000Y-26000000I5500000J-2500000D01*
G01*
X194500000Y-26000000D02*
X189500000Y-26000000D01*
X196500000Y-20500000D02*
G75*
G03X196500000Y-20500000I-4500000J0D01*
G01*
X166913950Y-37571753D02*
X168634679Y-35114297D01*
X168634679Y-35114297D02*
X171911287Y-37408602D01*
X162818190Y-34703871D02*
X164538919Y-32246414D01*
X164538919Y-32246414D02*
X167815527Y-34540720D01*
X167815527Y-34540720D02*
X166094798Y-36998176D01*
X160443159Y-29378532D02*
X163719767Y-31672838D01*
X163719767Y-31672838D02*
X161999038Y-34130294D01*
X170190558Y-39866058D02*
X158722429Y-31835988D01*
X160443159Y-29378532D02*
X154133818Y-38389205D01*
X171911287Y-37408602D02*
X165601946Y-46419275D01*
X160000000Y-46500000D02*
G75*
G03X160000000Y-46500000I-3000000J0D01*
G01*
X165500000Y-46500000D02*
G75*
G03X165500000Y-46500000I-8500000J0D01*
G01*
X238200000Y-18000000D02*
X238000000Y-18000000D01*
X240700000Y-18000000D02*
X241000000Y-18000000D01*
X239100000Y-18000000D02*
X238200000Y-18000000D01*
X240700000Y-18000000D02*
X239800000Y-18000000D01*
X239100000Y-18500000D02*
X239100000Y-17500000D01*
X239800000Y-18500000D02*
X239800000Y-17500000D01*
X239800000Y-17500000D02*
X239100000Y-18000000D01*
X239100000Y-18000000D02*
X239800000Y-18500000D01*
X241000000Y-18000000D02*
G75*
G03X241000000Y-18000000I-1500000J0D01*
G01*
X238200000Y-28000000D02*
X238000000Y-28000000D01*
X240700000Y-28000000D02*
X241000000Y-28000000D01*
X239100000Y-28000000D02*
X238200000Y-28000000D01*
X240700000Y-28000000D02*
X239800000Y-28000000D01*
X239100000Y-28500000D02*
X239100000Y-27500000D01*
X239800000Y-28500000D02*
X239800000Y-27500000D01*
X239800000Y-27500000D02*
X239100000Y-28000000D01*
X239100000Y-28000000D02*
X239800000Y-28500000D01*
X241000000Y-28000000D02*
G75*
G03X241000000Y-28000000I-1500000J0D01*
G01*
X238200000Y-23000000D02*
X238000000Y-23000000D01*
X240700000Y-23000000D02*
X241000000Y-23000000D01*
X239100000Y-23000000D02*
X238200000Y-23000000D01*
X240700000Y-23000000D02*
X239800000Y-23000000D01*
X239100000Y-23500000D02*
X239100000Y-22500000D01*
X239800000Y-23500000D02*
X239800000Y-22500000D01*
X239800000Y-22500000D02*
X239100000Y-23000000D01*
X239100000Y-23000000D02*
X239800000Y-23500000D01*
X241000000Y-23000000D02*
G75*
G03X241000000Y-23000000I-1500000J0D01*
G01*
X252000962Y-34130294D02*
X250280233Y-31672838D01*
X250280233Y-31672838D02*
X253556841Y-29378532D01*
X247905202Y-36998176D02*
X246184473Y-34540720D01*
X246184473Y-34540720D02*
X249461081Y-32246414D01*
X249461081Y-32246414D02*
X251181810Y-34703871D01*
X242088713Y-37408602D02*
X245365321Y-35114297D01*
X245365321Y-35114297D02*
X247086050Y-37571753D01*
X255277571Y-31835988D02*
X243809442Y-39866058D01*
X242088713Y-37408602D02*
X248398054Y-46419275D01*
X253556841Y-29378532D02*
X259866182Y-38389205D01*
X260000000Y-46500000D02*
G75*
G03X260000000Y-46500000I-3000000J0D01*
G01*
X265500000Y-46500000D02*
G75*
G03X265500000Y-46500000I-8500000J0D01*
G01*
X259500000Y-15000000D02*
G75*
G03X251500000Y-18000000I-2500000J-5500000D01*
G01*
X262500000Y-18000000D02*
G75*
G03X254500000Y-15000000I-5500000J-2500000D01*
G01*
X259500000Y-26000000D02*
G75*
G03X262500000Y-18000000I-2500000J5500000D01*
G01*
X251500000Y-18000000D02*
G75*
G03X254500000Y-26000000I5500000J-2500000D01*
G01*
X259500000Y-26000000D02*
X254500000Y-26000000D01*
X261500000Y-20500000D02*
G75*
G03X261500000Y-20500000I-4500000J0D01*
G01*
X238200000Y-13000000D02*
X238000000Y-13000000D01*
X240700000Y-13000000D02*
X241000000Y-13000000D01*
X239100000Y-13000000D02*
X238200000Y-13000000D01*
X240700000Y-13000000D02*
X239800000Y-13000000D01*
X239100000Y-13500000D02*
X239100000Y-12500000D01*
X239800000Y-13500000D02*
X239800000Y-12500000D01*
X239800000Y-12500000D02*
X239100000Y-13000000D01*
X239100000Y-13000000D02*
X239800000Y-13500000D01*
X241000000Y-13000000D02*
G75*
G03X241000000Y-13000000I-1500000J0D01*
G01*
X212086050Y-29428247D02*
X210365321Y-31885703D01*
X210365321Y-31885703D02*
X207088713Y-29591398D01*
X216181810Y-32296129D02*
X214461081Y-34753586D01*
X214461081Y-34753586D02*
X211184473Y-32459280D01*
X211184473Y-32459280D02*
X212905202Y-30001824D01*
X218556841Y-37621468D02*
X215280233Y-35327162D01*
X215280233Y-35327162D02*
X217000962Y-32869706D01*
X208809442Y-27133942D02*
X220277571Y-35164012D01*
X218556841Y-37621468D02*
X224866182Y-28610795D01*
X207088713Y-29591398D02*
X213398054Y-20580725D01*
X225000000Y-20500000D02*
G75*
G03X225000000Y-20500000I-3000000J0D01*
G01*
X230500000Y-20500000D02*
G75*
G03X230500000Y-20500000I-8500000J0D01*
G01*
X231913950Y-37571753D02*
X233634679Y-35114297D01*
X233634679Y-35114297D02*
X236911287Y-37408602D01*
X227818190Y-34703871D02*
X229538919Y-32246414D01*
X229538919Y-32246414D02*
X232815527Y-34540720D01*
X232815527Y-34540720D02*
X231094798Y-36998176D01*
X225443159Y-29378532D02*
X228719767Y-31672838D01*
X228719767Y-31672838D02*
X226999038Y-34130294D01*
X235190558Y-39866058D02*
X223722429Y-31835988D01*
X225443159Y-29378532D02*
X219133818Y-38389205D01*
X236911287Y-37408602D02*
X230601946Y-46419275D01*
X225000000Y-46500000D02*
G75*
G03X225000000Y-46500000I-3000000J0D01*
G01*
X230500000Y-46500000D02*
G75*
G03X230500000Y-46500000I-8500000J0D01*
G01*
X151915476Y-106500000D02*
G75*
G03X151915476Y-106500000I-2915476J0D01*
G01*
X154000000Y-111500000D02*
X144000000Y-111500000D01*
X144000000Y-111500000D02*
X144000000Y-100500000D01*
X144000000Y-100500000D02*
X154000000Y-100500000D01*
X154000000Y-100500000D02*
X154000000Y-111500000D01*
X151000000Y-106500000D02*
G75*
G03X151000000Y-106500000I-2000000J0D01*
G01*
X151915476Y-92500000D02*
G75*
G03X151915476Y-92500000I-2915476J0D01*
G01*
X154000000Y-97500000D02*
X144000000Y-97500000D01*
X144000000Y-97500000D02*
X144000000Y-86500000D01*
X144000000Y-86500000D02*
X154000000Y-86500000D01*
X154000000Y-86500000D02*
X154000000Y-97500000D01*
X151000000Y-92500000D02*
G75*
G03X151000000Y-92500000I-2000000J0D01*
G01*
X152000962Y-60130294D02*
X150280233Y-57672838D01*
X150280233Y-57672838D02*
X153556841Y-55378532D01*
X147905202Y-62998176D02*
X146184473Y-60540720D01*
X146184473Y-60540720D02*
X149461081Y-58246414D01*
X149461081Y-58246414D02*
X151181810Y-60703871D01*
X142088713Y-63408602D02*
X145365321Y-61114297D01*
X145365321Y-61114297D02*
X147086050Y-63571753D01*
X155277571Y-57835988D02*
X143809442Y-65866058D01*
X142088713Y-63408602D02*
X148398054Y-72419275D01*
X153556841Y-55378532D02*
X159866182Y-64389205D01*
X160000000Y-72500000D02*
G75*
G03X160000000Y-72500000I-3000000J0D01*
G01*
X165500000Y-72500000D02*
G75*
G03X165500000Y-72500000I-8500000J0D01*
G01*
X165915476Y-106500000D02*
G75*
G03X165915476Y-106500000I-2915476J0D01*
G01*
X168000000Y-111500000D02*
X158000000Y-111500000D01*
X158000000Y-111500000D02*
X158000000Y-100500000D01*
X158000000Y-100500000D02*
X168000000Y-100500000D01*
X168000000Y-100500000D02*
X168000000Y-111500000D01*
X165000000Y-106500000D02*
G75*
G03X165000000Y-106500000I-2000000J0D01*
G01*
X201913950Y-63571753D02*
X203634679Y-61114297D01*
X203634679Y-61114297D02*
X206911287Y-63408602D01*
X197818190Y-60703871D02*
X199538919Y-58246414D01*
X199538919Y-58246414D02*
X202815527Y-60540720D01*
X202815527Y-60540720D02*
X201094798Y-62998176D01*
X195443159Y-55378532D02*
X198719767Y-57672838D01*
X198719767Y-57672838D02*
X196999038Y-60130294D01*
X205190558Y-65866058D02*
X193722429Y-57835988D01*
X195443159Y-55378532D02*
X189133818Y-64389205D01*
X206911287Y-63408602D02*
X200601946Y-72419275D01*
X195000000Y-72500000D02*
G75*
G03X195000000Y-72500000I-3000000J0D01*
G01*
X200500000Y-72500000D02*
G75*
G03X200500000Y-72500000I-8500000J0D01*
G01*
X202915476Y-92500000D02*
G75*
G03X202915476Y-92500000I-2915476J0D01*
G01*
X205000000Y-97500000D02*
X195000000Y-97500000D01*
X195000000Y-97500000D02*
X195000000Y-86500000D01*
X195000000Y-86500000D02*
X205000000Y-86500000D01*
X205000000Y-86500000D02*
X205000000Y-97500000D01*
X202000000Y-92500000D02*
G75*
G03X202000000Y-92500000I-2000000J0D01*
G01*
X188915476Y-106500000D02*
G75*
G03X188915476Y-106500000I-2915476J0D01*
G01*
X191000000Y-111500000D02*
X181000000Y-111500000D01*
X181000000Y-111500000D02*
X181000000Y-100500000D01*
X181000000Y-100500000D02*
X191000000Y-100500000D01*
X191000000Y-100500000D02*
X191000000Y-111500000D01*
X188000000Y-106500000D02*
G75*
G03X188000000Y-106500000I-2000000J0D01*
G01*
X202915476Y-106500000D02*
G75*
G03X202915476Y-106500000I-2915476J0D01*
G01*
X205000000Y-111500000D02*
X195000000Y-111500000D01*
X195000000Y-111500000D02*
X195000000Y-100500000D01*
X195000000Y-100500000D02*
X205000000Y-100500000D01*
X205000000Y-100500000D02*
X205000000Y-111500000D01*
X202000000Y-106500000D02*
G75*
G03X202000000Y-106500000I-2000000J0D01*
G01*
X173200000Y-18000000D02*
X173000000Y-18000000D01*
X175700000Y-18000000D02*
X176000000Y-18000000D01*
X174100000Y-18000000D02*
X173200000Y-18000000D01*
X175700000Y-18000000D02*
X174800000Y-18000000D01*
X174100000Y-18500000D02*
X174100000Y-17500000D01*
X174800000Y-18500000D02*
X174800000Y-17500000D01*
X174800000Y-17500000D02*
X174100000Y-18000000D01*
X174100000Y-18000000D02*
X174800000Y-18500000D01*
X176000000Y-18000000D02*
G75*
G03X176000000Y-18000000I-1500000J0D01*
G01*
X173200000Y-13000000D02*
X173000000Y-13000000D01*
X175700000Y-13000000D02*
X176000000Y-13000000D01*
X174100000Y-13000000D02*
X173200000Y-13000000D01*
X175700000Y-13000000D02*
X174800000Y-13000000D01*
X174100000Y-13500000D02*
X174100000Y-12500000D01*
X174800000Y-13500000D02*
X174800000Y-12500000D01*
X174800000Y-12500000D02*
X174100000Y-13000000D01*
X174100000Y-13000000D02*
X174800000Y-13500000D01*
X176000000Y-13000000D02*
G75*
G03X176000000Y-13000000I-1500000J0D01*
G01*
X173200000Y-28000000D02*
X173000000Y-28000000D01*
X175700000Y-28000000D02*
X176000000Y-28000000D01*
X174100000Y-28000000D02*
X173200000Y-28000000D01*
X175700000Y-28000000D02*
X174800000Y-28000000D01*
X174100000Y-28500000D02*
X174100000Y-27500000D01*
X174800000Y-28500000D02*
X174800000Y-27500000D01*
X174800000Y-27500000D02*
X174100000Y-28000000D01*
X174100000Y-28000000D02*
X174800000Y-28500000D01*
X176000000Y-28000000D02*
G75*
G03X176000000Y-28000000I-1500000J0D01*
G01*
X147086050Y-29428247D02*
X145365321Y-31885703D01*
X145365321Y-31885703D02*
X142088713Y-29591398D01*
X151181810Y-32296129D02*
X149461081Y-34753586D01*
X149461081Y-34753586D02*
X146184473Y-32459280D01*
X146184473Y-32459280D02*
X147905202Y-30001824D01*
X153556841Y-37621468D02*
X150280233Y-35327162D01*
X150280233Y-35327162D02*
X152000962Y-32869706D01*
X143809442Y-27133942D02*
X155277571Y-35164012D01*
X153556841Y-37621468D02*
X159866182Y-28610795D01*
X142088713Y-29591398D02*
X148398054Y-20580725D01*
X160000000Y-20500000D02*
G75*
G03X160000000Y-20500000I-3000000J0D01*
G01*
X165500000Y-20500000D02*
G75*
G03X165500000Y-20500000I-8500000J0D01*
G01*
X137915476Y-106500000D02*
G75*
G03X137915476Y-106500000I-2915476J0D01*
G01*
X140000000Y-111500000D02*
X130000000Y-111500000D01*
X130000000Y-111500000D02*
X130000000Y-100500000D01*
X130000000Y-100500000D02*
X140000000Y-100500000D01*
X140000000Y-100500000D02*
X140000000Y-111500000D01*
X137000000Y-106500000D02*
G75*
G03X137000000Y-106500000I-2000000J0D01*
G01*
X100915476Y-106500000D02*
G75*
G03X100915476Y-106500000I-2915476J0D01*
G01*
X103000000Y-111500000D02*
X93000000Y-111500000D01*
X93000000Y-111500000D02*
X93000000Y-100500000D01*
X93000000Y-100500000D02*
X103000000Y-100500000D01*
X103000000Y-100500000D02*
X103000000Y-111500000D01*
X100000000Y-106500000D02*
G75*
G03X100000000Y-106500000I-2000000J0D01*
G01*
X123915476Y-106500000D02*
G75*
G03X123915476Y-106500000I-2915476J0D01*
G01*
X126000000Y-111500000D02*
X116000000Y-111500000D01*
X116000000Y-111500000D02*
X116000000Y-100500000D01*
X116000000Y-100500000D02*
X126000000Y-100500000D01*
X126000000Y-100500000D02*
X126000000Y-111500000D01*
X123000000Y-106500000D02*
G75*
G03X123000000Y-106500000I-2000000J0D01*
G01*
X137915476Y-92500000D02*
G75*
G03X137915476Y-92500000I-2915476J0D01*
G01*
X140000000Y-97500000D02*
X130000000Y-97500000D01*
X130000000Y-97500000D02*
X130000000Y-86500000D01*
X130000000Y-86500000D02*
X140000000Y-86500000D01*
X140000000Y-86500000D02*
X140000000Y-97500000D01*
X137000000Y-92500000D02*
G75*
G03X137000000Y-92500000I-2000000J0D01*
G01*
X86915476Y-92500000D02*
G75*
G03X86915476Y-92500000I-2915476J0D01*
G01*
X89000000Y-97500000D02*
X79000000Y-97500000D01*
X79000000Y-97500000D02*
X79000000Y-86500000D01*
X79000000Y-86500000D02*
X89000000Y-86500000D01*
X89000000Y-86500000D02*
X89000000Y-97500000D01*
X86000000Y-92500000D02*
G75*
G03X86000000Y-92500000I-2000000J0D01*
G01*
X86915476Y-106500000D02*
G75*
G03X86915476Y-106500000I-2915476J0D01*
G01*
X89000000Y-111500000D02*
X79000000Y-111500000D01*
X79000000Y-111500000D02*
X79000000Y-100500000D01*
X79000000Y-100500000D02*
X89000000Y-100500000D01*
X89000000Y-100500000D02*
X89000000Y-111500000D01*
X86000000Y-106500000D02*
G75*
G03X86000000Y-106500000I-2000000J0D01*
G01*
X136913950Y-63571753D02*
X138634679Y-61114297D01*
X138634679Y-61114297D02*
X141911287Y-63408602D01*
X132818190Y-60703871D02*
X134538919Y-58246414D01*
X134538919Y-58246414D02*
X137815527Y-60540720D01*
X137815527Y-60540720D02*
X136094798Y-62998176D01*
X130443159Y-55378532D02*
X133719767Y-57672838D01*
X133719767Y-57672838D02*
X131999038Y-60130294D01*
X140190558Y-65866058D02*
X128722429Y-57835988D01*
X130443159Y-55378532D02*
X124133818Y-64389205D01*
X141911287Y-63408602D02*
X135601946Y-72419275D01*
X130000000Y-72500000D02*
G75*
G03X130000000Y-72500000I-3000000J0D01*
G01*
X135500000Y-72500000D02*
G75*
G03X135500000Y-72500000I-8500000J0D01*
G01*
X87000962Y-60130294D02*
X85280233Y-57672838D01*
X85280233Y-57672838D02*
X88556841Y-55378532D01*
X82905202Y-62998176D02*
X81184473Y-60540720D01*
X81184473Y-60540720D02*
X84461081Y-58246414D01*
X84461081Y-58246414D02*
X86181810Y-60703871D01*
X77088713Y-63408602D02*
X80365321Y-61114297D01*
X80365321Y-61114297D02*
X82086050Y-63571753D01*
X90277571Y-57835988D02*
X78809442Y-65866058D01*
X77088713Y-63408602D02*
X83398054Y-72419275D01*
X88556841Y-55378532D02*
X94866182Y-64389205D01*
X95000000Y-72500000D02*
G75*
G03X95000000Y-72500000I-3000000J0D01*
G01*
X100500000Y-72500000D02*
G75*
G03X100500000Y-72500000I-8500000J0D01*
G01*
X122000962Y-34130294D02*
X120280233Y-31672838D01*
X120280233Y-31672838D02*
X123556841Y-29378532D01*
X117905202Y-36998176D02*
X116184473Y-34540720D01*
X116184473Y-34540720D02*
X119461081Y-32246414D01*
X119461081Y-32246414D02*
X121181810Y-34703871D01*
X112088713Y-37408602D02*
X115365321Y-35114297D01*
X115365321Y-35114297D02*
X117086050Y-37571753D01*
X125277571Y-31835988D02*
X113809442Y-39866058D01*
X112088713Y-37408602D02*
X118398054Y-46419275D01*
X123556841Y-29378532D02*
X129866182Y-38389205D01*
X130000000Y-46500000D02*
G75*
G03X130000000Y-46500000I-3000000J0D01*
G01*
X135500000Y-46500000D02*
G75*
G03X135500000Y-46500000I-8500000J0D01*
G01*
X129500000Y-15000000D02*
G75*
G03X121500000Y-18000000I-2500000J-5500000D01*
G01*
X132500000Y-18000000D02*
G75*
G03X124500000Y-15000000I-5500000J-2500000D01*
G01*
X129500000Y-26000000D02*
G75*
G03X132500000Y-18000000I-2500000J5500000D01*
G01*
X121500000Y-18000000D02*
G75*
G03X124500000Y-26000000I5500000J-2500000D01*
G01*
X129500000Y-26000000D02*
X124500000Y-26000000D01*
X131500000Y-20500000D02*
G75*
G03X131500000Y-20500000I-4500000J0D01*
G01*
X101913950Y-37571753D02*
X103634679Y-35114297D01*
X103634679Y-35114297D02*
X106911287Y-37408602D01*
X97818190Y-34703871D02*
X99538919Y-32246414D01*
X99538919Y-32246414D02*
X102815527Y-34540720D01*
X102815527Y-34540720D02*
X101094798Y-36998176D01*
X95443159Y-29378532D02*
X98719767Y-31672838D01*
X98719767Y-31672838D02*
X96999038Y-34130294D01*
X105190558Y-39866058D02*
X93722429Y-31835988D01*
X95443159Y-29378532D02*
X89133818Y-38389205D01*
X106911287Y-37408602D02*
X100601946Y-46419275D01*
X95000000Y-46500000D02*
G75*
G03X95000000Y-46500000I-3000000J0D01*
G01*
X100500000Y-46500000D02*
G75*
G03X100500000Y-46500000I-8500000J0D01*
G01*
X82086050Y-29428247D02*
X80365321Y-31885703D01*
X80365321Y-31885703D02*
X77088713Y-29591398D01*
X86181810Y-32296129D02*
X84461081Y-34753586D01*
X84461081Y-34753586D02*
X81184473Y-32459280D01*
X81184473Y-32459280D02*
X82905202Y-30001824D01*
X88556841Y-37621468D02*
X85280233Y-35327162D01*
X85280233Y-35327162D02*
X87000962Y-32869706D01*
X78809442Y-27133942D02*
X90277571Y-35164012D01*
X88556841Y-37621468D02*
X94866182Y-28610795D01*
X77088713Y-29591398D02*
X83398054Y-20580725D01*
X95000000Y-20500000D02*
G75*
G03X95000000Y-20500000I-3000000J0D01*
G01*
X100500000Y-20500000D02*
G75*
G03X100500000Y-20500000I-8500000J0D01*
G01*
X108200000Y-18000000D02*
X108000000Y-18000000D01*
X110700000Y-18000000D02*
X111000000Y-18000000D01*
X109100000Y-18000000D02*
X108200000Y-18000000D01*
X110700000Y-18000000D02*
X109800000Y-18000000D01*
X109100000Y-18500000D02*
X109100000Y-17500000D01*
X109800000Y-18500000D02*
X109800000Y-17500000D01*
X109800000Y-17500000D02*
X109100000Y-18000000D01*
X109100000Y-18000000D02*
X109800000Y-18500000D01*
X111000000Y-18000000D02*
G75*
G03X111000000Y-18000000I-1500000J0D01*
G01*
X108200000Y-23000000D02*
X108000000Y-23000000D01*
X110700000Y-23000000D02*
X111000000Y-23000000D01*
X109100000Y-23000000D02*
X108200000Y-23000000D01*
X110700000Y-23000000D02*
X109800000Y-23000000D01*
X109100000Y-23500000D02*
X109100000Y-22500000D01*
X109800000Y-23500000D02*
X109800000Y-22500000D01*
X109800000Y-22500000D02*
X109100000Y-23000000D01*
X109100000Y-23000000D02*
X109800000Y-23500000D01*
X111000000Y-23000000D02*
G75*
G03X111000000Y-23000000I-1500000J0D01*
G01*
X108200000Y-28000000D02*
X108000000Y-28000000D01*
X110700000Y-28000000D02*
X111000000Y-28000000D01*
X109100000Y-28000000D02*
X108200000Y-28000000D01*
X110700000Y-28000000D02*
X109800000Y-28000000D01*
X109100000Y-28500000D02*
X109100000Y-27500000D01*
X109800000Y-28500000D02*
X109800000Y-27500000D01*
X109800000Y-27500000D02*
X109100000Y-28000000D01*
X109100000Y-28000000D02*
X109800000Y-28500000D01*
X111000000Y-28000000D02*
G75*
G03X111000000Y-28000000I-1500000J0D01*
G01*
X108200000Y-13000000D02*
X108000000Y-13000000D01*
X110700000Y-13000000D02*
X111000000Y-13000000D01*
X109100000Y-13000000D02*
X108200000Y-13000000D01*
X110700000Y-13000000D02*
X109800000Y-13000000D01*
X109100000Y-13500000D02*
X109100000Y-12500000D01*
X109800000Y-13500000D02*
X109800000Y-12500000D01*
X109800000Y-12500000D02*
X109100000Y-13000000D01*
X109100000Y-13000000D02*
X109800000Y-13500000D01*
X111000000Y-13000000D02*
G75*
G03X111000000Y-13000000I-1500000J0D01*
G01*
X17086050Y-29428247D02*
X15365321Y-31885703D01*
X15365321Y-31885703D02*
X12088713Y-29591398D01*
X21181810Y-32296129D02*
X19461081Y-34753586D01*
X19461081Y-34753586D02*
X16184473Y-32459280D01*
X16184473Y-32459280D02*
X17905202Y-30001824D01*
X23556841Y-37621468D02*
X20280233Y-35327162D01*
X20280233Y-35327162D02*
X22000962Y-32869706D01*
X13809442Y-27133942D02*
X25277571Y-35164012D01*
X23556841Y-37621468D02*
X29866182Y-28610795D01*
X12088713Y-29591398D02*
X18398054Y-20580725D01*
X30000000Y-20500000D02*
G75*
G03X30000000Y-20500000I-3000000J0D01*
G01*
X35500000Y-20500000D02*
G75*
G03X35500000Y-20500000I-8500000J0D01*
G01*
X64500000Y-15000000D02*
G75*
G03X56500000Y-18000000I-2500000J-5500000D01*
G01*
X67500000Y-18000000D02*
G75*
G03X59500000Y-15000000I-5500000J-2500000D01*
G01*
X64500000Y-26000000D02*
G75*
G03X67500000Y-18000000I-2500000J5500000D01*
G01*
X56500000Y-18000000D02*
G75*
G03X59500000Y-26000000I5500000J-2500000D01*
G01*
X64500000Y-26000000D02*
X59500000Y-26000000D01*
X66500000Y-20500000D02*
G75*
G03X66500000Y-20500000I-4500000J0D01*
G01*
X43200000Y-28000000D02*
X43000000Y-28000000D01*
X45700000Y-28000000D02*
X46000000Y-28000000D01*
X44100000Y-28000000D02*
X43200000Y-28000000D01*
X45700000Y-28000000D02*
X44800000Y-28000000D01*
X44100000Y-28500000D02*
X44100000Y-27500000D01*
X44800000Y-28500000D02*
X44800000Y-27500000D01*
X44800000Y-27500000D02*
X44100000Y-28000000D01*
X44100000Y-28000000D02*
X44800000Y-28500000D01*
X46000000Y-28000000D02*
G75*
G03X46000000Y-28000000I-1500000J0D01*
G01*
X43200000Y-23000000D02*
X43000000Y-23000000D01*
X45700000Y-23000000D02*
X46000000Y-23000000D01*
X44100000Y-23000000D02*
X43200000Y-23000000D01*
X45700000Y-23000000D02*
X44800000Y-23000000D01*
X44100000Y-23500000D02*
X44100000Y-22500000D01*
X44800000Y-23500000D02*
X44800000Y-22500000D01*
X44800000Y-22500000D02*
X44100000Y-23000000D01*
X44100000Y-23000000D02*
X44800000Y-23500000D01*
X46000000Y-23000000D02*
G75*
G03X46000000Y-23000000I-1500000J0D01*
G01*
X43200000Y-18000000D02*
X43000000Y-18000000D01*
X45700000Y-18000000D02*
X46000000Y-18000000D01*
X44100000Y-18000000D02*
X43200000Y-18000000D01*
X45700000Y-18000000D02*
X44800000Y-18000000D01*
X44100000Y-18500000D02*
X44100000Y-17500000D01*
X44800000Y-18500000D02*
X44800000Y-17500000D01*
X44800000Y-17500000D02*
X44100000Y-18000000D01*
X44100000Y-18000000D02*
X44800000Y-18500000D01*
X46000000Y-18000000D02*
G75*
G03X46000000Y-18000000I-1500000J0D01*
G01*
X43200000Y-13000000D02*
X43000000Y-13000000D01*
X45700000Y-13000000D02*
X46000000Y-13000000D01*
X44100000Y-13000000D02*
X43200000Y-13000000D01*
X45700000Y-13000000D02*
X44800000Y-13000000D01*
X44100000Y-13500000D02*
X44100000Y-12500000D01*
X44800000Y-13500000D02*
X44800000Y-12500000D01*
X44800000Y-12500000D02*
X44100000Y-13000000D01*
X44100000Y-13000000D02*
X44800000Y-13500000D01*
X46000000Y-13000000D02*
G75*
G03X46000000Y-13000000I-1500000J0D01*
G01*
X36913950Y-37571753D02*
X38634679Y-35114297D01*
X38634679Y-35114297D02*
X41911287Y-37408602D01*
X32818190Y-34703871D02*
X34538919Y-32246414D01*
X34538919Y-32246414D02*
X37815527Y-34540720D01*
X37815527Y-34540720D02*
X36094798Y-36998176D01*
X30443159Y-29378532D02*
X33719767Y-31672838D01*
X33719767Y-31672838D02*
X31999038Y-34130294D01*
X40190558Y-39866058D02*
X28722429Y-31835988D01*
X30443159Y-29378532D02*
X24133818Y-38389205D01*
X41911287Y-37408602D02*
X35601946Y-46419275D01*
X30000000Y-46500000D02*
G75*
G03X30000000Y-46500000I-3000000J0D01*
G01*
X35500000Y-46500000D02*
G75*
G03X35500000Y-46500000I-8500000J0D01*
G01*
X22000962Y-60130294D02*
X20280233Y-57672838D01*
X20280233Y-57672838D02*
X23556841Y-55378532D01*
X17905202Y-62998176D02*
X16184473Y-60540720D01*
X16184473Y-60540720D02*
X19461081Y-58246414D01*
X19461081Y-58246414D02*
X21181810Y-60703871D01*
X12088713Y-63408602D02*
X15365321Y-61114297D01*
X15365321Y-61114297D02*
X17086050Y-63571753D01*
X25277571Y-57835988D02*
X13809442Y-65866058D01*
X12088713Y-63408602D02*
X18398054Y-72419275D01*
X23556841Y-55378532D02*
X29866182Y-64389205D01*
X30000000Y-72500000D02*
G75*
G03X30000000Y-72500000I-3000000J0D01*
G01*
X35500000Y-72500000D02*
G75*
G03X35500000Y-72500000I-8500000J0D01*
G01*
X71913950Y-63571753D02*
X73634679Y-61114297D01*
X73634679Y-61114297D02*
X76911287Y-63408602D01*
X67818190Y-60703871D02*
X69538919Y-58246414D01*
X69538919Y-58246414D02*
X72815527Y-60540720D01*
X72815527Y-60540720D02*
X71094798Y-62998176D01*
X65443159Y-55378532D02*
X68719767Y-57672838D01*
X68719767Y-57672838D02*
X66999038Y-60130294D01*
X75190558Y-65866058D02*
X63722429Y-57835988D01*
X65443159Y-55378532D02*
X59133818Y-64389205D01*
X76911287Y-63408602D02*
X70601946Y-72419275D01*
X65000000Y-72500000D02*
G75*
G03X65000000Y-72500000I-3000000J0D01*
G01*
X70500000Y-72500000D02*
G75*
G03X70500000Y-72500000I-8500000J0D01*
G01*
X57000962Y-34130294D02*
X55280233Y-31672838D01*
X55280233Y-31672838D02*
X58556841Y-29378532D01*
X52905202Y-36998176D02*
X51184473Y-34540720D01*
X51184473Y-34540720D02*
X54461081Y-32246414D01*
X54461081Y-32246414D02*
X56181810Y-34703871D01*
X47088713Y-37408602D02*
X50365321Y-35114297D01*
X50365321Y-35114297D02*
X52086050Y-37571753D01*
X60277571Y-31835988D02*
X48809442Y-39866058D01*
X47088713Y-37408602D02*
X53398054Y-46419275D01*
X58556841Y-29378532D02*
X64866182Y-38389205D01*
X65000000Y-46500000D02*
G75*
G03X65000000Y-46500000I-3000000J0D01*
G01*
X70500000Y-46500000D02*
G75*
G03X70500000Y-46500000I-8500000J0D01*
G01*
X21915476Y-106500000D02*
G75*
G03X21915476Y-106500000I-2915476J0D01*
G01*
X24000000Y-111500000D02*
X14000000Y-111500000D01*
X14000000Y-111500000D02*
X14000000Y-100500000D01*
X14000000Y-100500000D02*
X24000000Y-100500000D01*
X24000000Y-100500000D02*
X24000000Y-111500000D01*
X21000000Y-106500000D02*
G75*
G03X21000000Y-106500000I-2000000J0D01*
G01*
X21915476Y-92500000D02*
G75*
G03X21915476Y-92500000I-2915476J0D01*
G01*
X24000000Y-97500000D02*
X14000000Y-97500000D01*
X14000000Y-97500000D02*
X14000000Y-86500000D01*
X14000000Y-86500000D02*
X24000000Y-86500000D01*
X24000000Y-86500000D02*
X24000000Y-97500000D01*
X21000000Y-92500000D02*
G75*
G03X21000000Y-92500000I-2000000J0D01*
G01*
X72915476Y-92500000D02*
G75*
G03X72915476Y-92500000I-2915476J0D01*
G01*
X75000000Y-97500000D02*
X65000000Y-97500000D01*
X65000000Y-97500000D02*
X65000000Y-86500000D01*
X65000000Y-86500000D02*
X75000000Y-86500000D01*
X75000000Y-86500000D02*
X75000000Y-97500000D01*
X72000000Y-92500000D02*
G75*
G03X72000000Y-92500000I-2000000J0D01*
G01*
X58915476Y-106500000D02*
G75*
G03X58915476Y-106500000I-2915476J0D01*
G01*
X61000000Y-111500000D02*
X51000000Y-111500000D01*
X51000000Y-111500000D02*
X51000000Y-100500000D01*
X51000000Y-100500000D02*
X61000000Y-100500000D01*
X61000000Y-100500000D02*
X61000000Y-111500000D01*
X58000000Y-106500000D02*
G75*
G03X58000000Y-106500000I-2000000J0D01*
G01*
X35915476Y-106500000D02*
G75*
G03X35915476Y-106500000I-2915476J0D01*
G01*
X38000000Y-111500000D02*
X28000000Y-111500000D01*
X28000000Y-111500000D02*
X28000000Y-100500000D01*
X28000000Y-100500000D02*
X38000000Y-100500000D01*
X38000000Y-100500000D02*
X38000000Y-111500000D01*
X35000000Y-106500000D02*
G75*
G03X35000000Y-106500000I-2000000J0D01*
G01*
X72915476Y-106500000D02*
G75*
G03X72915476Y-106500000I-2915476J0D01*
G01*
X75000000Y-111500000D02*
X65000000Y-111500000D01*
X65000000Y-111500000D02*
X65000000Y-100500000D01*
X65000000Y-100500000D02*
X75000000Y-100500000D01*
X75000000Y-100500000D02*
X75000000Y-111500000D01*
X72000000Y-106500000D02*
G75*
G03X72000000Y-106500000I-2000000J0D01*
G01*
X254000000Y-100928571D02*
X254000000Y-102000000D01*
X253928572Y-102214286D01*
X253785715Y-102357143D01*
X253571429Y-102428571D01*
X253428572Y-102428571D01*
X255357143Y-101428571D02*
X255357143Y-102428571D01*
X255000000Y-100857143D02*
X254642857Y-101928571D01*
X255571429Y-101928571D01*
X231250000Y-100928571D02*
X231250000Y-102000000D01*
X231178572Y-102214286D01*
X231035715Y-102357143D01*
X230821429Y-102428571D01*
X230678572Y-102428571D01*
X232678572Y-100928571D02*
X231964286Y-100928571D01*
X231892857Y-101642857D01*
X231964286Y-101571429D01*
X232107143Y-101500000D01*
X232464286Y-101500000D01*
X232607143Y-101571429D01*
X232678572Y-101642857D01*
X232750000Y-101785714D01*
X232750000Y-102142857D01*
X232678572Y-102285714D01*
X232607143Y-102357143D01*
X232464286Y-102428571D01*
X232107143Y-102428571D01*
X231964286Y-102357143D01*
X231892857Y-102285714D01*
X268000000Y-86928571D02*
X268000000Y-88000000D01*
X267928572Y-88214286D01*
X267785715Y-88357143D01*
X267571429Y-88428571D01*
X267428572Y-88428571D01*
X268571429Y-86928571D02*
X269500000Y-86928571D01*
X269000000Y-87500000D01*
X269214286Y-87500000D01*
X269357143Y-87571429D01*
X269428572Y-87642857D01*
X269500000Y-87785714D01*
X269500000Y-88142857D01*
X269428572Y-88285714D01*
X269357143Y-88357143D01*
X269214286Y-88428571D01*
X268785714Y-88428571D01*
X268642857Y-88357143D01*
X268571429Y-88285714D01*
D13*
X255843897Y-70671665D02*
X255385896Y-72211429D01*
X256676156Y-71254419D01*
X256931519Y-73293686D02*
X256931642Y-72407838D01*
X256218154Y-72794183D02*
X257092285Y-71545795D01*
X257567862Y-71878798D01*
X257645130Y-72021495D01*
X257662952Y-72122567D01*
X257639148Y-72283086D01*
X257514272Y-72461428D01*
X257371576Y-72538696D01*
X257270502Y-72556518D01*
X257109984Y-72532715D01*
X256634407Y-72199712D01*
X258584319Y-73210683D02*
X258001565Y-74042941D01*
X258620086Y-72526980D02*
X257698472Y-73210559D01*
X258471283Y-73751687D01*
D12*
X217000000Y-86928571D02*
X217000000Y-88000000D01*
X216928572Y-88214286D01*
X216785715Y-88357143D01*
X216571429Y-88428571D01*
X216428572Y-88428571D01*
X217642857Y-87071429D02*
X217714286Y-87000000D01*
X217857143Y-86928571D01*
X218214286Y-86928571D01*
X218357143Y-87000000D01*
X218428572Y-87071429D01*
X218500000Y-87214286D01*
X218500000Y-87357143D01*
X218428572Y-87571429D01*
X217571429Y-88428571D01*
X218500000Y-88428571D01*
X268000000Y-100928571D02*
X268000000Y-102000000D01*
X267928572Y-102214286D01*
X267785715Y-102357143D01*
X267571429Y-102428571D01*
X267428572Y-102428571D01*
X269357143Y-100928571D02*
X269071429Y-100928571D01*
X268928572Y-101000000D01*
X268857143Y-101071429D01*
X268714286Y-101285714D01*
X268642857Y-101571429D01*
X268642857Y-102142857D01*
X268714286Y-102285714D01*
X268785714Y-102357143D01*
X268928572Y-102428571D01*
X269214286Y-102428571D01*
X269357143Y-102357143D01*
X269428572Y-102285714D01*
X269500000Y-102142857D01*
X269500000Y-101785714D01*
X269428572Y-101642857D01*
X269357143Y-101571429D01*
X269214286Y-101500000D01*
X268928572Y-101500000D01*
X268785714Y-101571429D01*
X268714286Y-101642857D01*
X268642857Y-101785714D01*
X217250000Y-100928571D02*
X217250000Y-102000000D01*
X217178572Y-102214286D01*
X217035715Y-102357143D01*
X216821429Y-102428571D01*
X216678572Y-102428571D01*
X218750000Y-102428571D02*
X217892857Y-102428571D01*
X218321429Y-102428571D02*
X218321429Y-100928571D01*
X218178572Y-101142857D01*
X218035714Y-101285714D01*
X217892857Y-101357143D01*
D13*
X219886517Y-72961054D02*
X221176776Y-73918065D01*
X220718775Y-72378300D01*
X222722399Y-72835808D02*
X221890017Y-72532714D01*
X222009035Y-73335311D02*
X221134904Y-72086923D01*
X221610481Y-71753921D01*
X221770999Y-71730118D01*
X221872072Y-71747939D01*
X222014769Y-71825208D01*
X222139645Y-72003550D01*
X222163449Y-72164068D01*
X222145627Y-72265141D01*
X222068358Y-72407838D01*
X221592782Y-72740840D01*
X222264398Y-71296044D02*
X223037210Y-70754915D01*
X222954082Y-71521868D01*
X223132423Y-71396992D01*
X223292942Y-71373188D01*
X223394015Y-71391011D01*
X223536713Y-71468279D01*
X223744839Y-71765514D01*
X223768642Y-71926034D01*
X223750820Y-72027106D01*
X223673552Y-72169804D01*
X223316870Y-72419555D01*
X223156350Y-72443358D01*
X223055278Y-72425537D01*
X189886517Y-46961054D02*
X191176776Y-47918065D01*
X190718775Y-46378300D01*
X192722399Y-46835808D02*
X191890017Y-46532714D01*
X192009035Y-47335311D02*
X191134904Y-46086923D01*
X191610481Y-45753921D01*
X191770999Y-45730118D01*
X191872072Y-45747939D01*
X192014769Y-45825208D01*
X192139645Y-46003550D01*
X192163449Y-46164068D01*
X192145627Y-46265141D01*
X192068358Y-46407838D01*
X191592782Y-46740840D01*
X192918315Y-44838166D02*
X192680527Y-45004667D01*
X192603258Y-45147364D01*
X192585436Y-45248436D01*
X192591418Y-45510028D01*
X192698472Y-45789441D01*
X193031475Y-46265017D01*
X193174172Y-46342287D01*
X193275244Y-46360108D01*
X193435763Y-46336305D01*
X193673552Y-46169804D01*
X193750820Y-46027106D01*
X193768642Y-45926034D01*
X193744839Y-45765514D01*
X193536713Y-45468279D01*
X193394015Y-45391011D01*
X193292942Y-45373188D01*
X193132423Y-45396992D01*
X192894635Y-45563493D01*
X192817366Y-45706190D01*
X192799544Y-45807263D01*
X192823348Y-45967782D01*
D12*
X173900077Y-25867695D02*
X173900077Y-25054895D01*
X174093601Y-25054895D01*
X174209715Y-25093600D01*
X174287124Y-25171010D01*
X174325829Y-25248419D01*
X174364534Y-25403238D01*
X174364534Y-25519352D01*
X174325829Y-25674171D01*
X174287124Y-25751581D01*
X174209715Y-25828990D01*
X174093601Y-25867695D01*
X173900077Y-25867695D01*
X174635467Y-25054895D02*
X175138629Y-25054895D01*
X174867696Y-25364533D01*
X174983810Y-25364533D01*
X175061220Y-25403238D01*
X175099924Y-25441943D01*
X175138629Y-25519352D01*
X175138629Y-25712876D01*
X175099924Y-25790286D01*
X175061220Y-25828990D01*
X174983810Y-25867695D01*
X174751582Y-25867695D01*
X174674172Y-25828990D01*
X174635467Y-25790286D01*
D14*
X190916267Y-27078990D02*
X191032381Y-27117695D01*
X191225905Y-27117695D01*
X191303315Y-27078990D01*
X191342019Y-27040286D01*
X191380724Y-26962876D01*
X191380724Y-26885467D01*
X191342019Y-26808057D01*
X191303315Y-26769352D01*
X191225905Y-26730648D01*
X191071086Y-26691943D01*
X190993677Y-26653238D01*
X190954972Y-26614533D01*
X190916267Y-26537124D01*
X190916267Y-26459714D01*
X190954972Y-26382305D01*
X190993677Y-26343600D01*
X191071086Y-26304895D01*
X191264610Y-26304895D01*
X191380724Y-26343600D01*
X191651657Y-26304895D02*
X191845181Y-27117695D01*
X192000000Y-26537124D01*
X192154819Y-27117695D01*
X192348343Y-26304895D01*
X193083733Y-27117695D02*
X192619276Y-27117695D01*
X192851505Y-27117695D02*
X192851505Y-26304895D01*
X192774095Y-26421010D01*
X192696686Y-26498419D01*
X192619276Y-26537124D01*
D13*
X155843897Y-44671665D02*
X155385896Y-46211429D01*
X156676156Y-45254419D01*
X156931519Y-47293686D02*
X156931642Y-46407838D01*
X156218154Y-46794183D02*
X157092285Y-45545795D01*
X157567862Y-45878798D01*
X157645130Y-46021495D01*
X157662952Y-46122567D01*
X157639148Y-46283086D01*
X157514272Y-46461428D01*
X157371576Y-46538696D01*
X157270502Y-46556518D01*
X157109984Y-46532715D01*
X156634407Y-46199712D01*
X158197976Y-46497194D02*
X158299047Y-46479373D01*
X158459567Y-46503177D01*
X158756802Y-46711303D01*
X158834071Y-46854000D01*
X158851893Y-46955072D01*
X158828089Y-47115592D01*
X158744839Y-47234486D01*
X158560516Y-47371201D01*
X157347648Y-47585063D01*
X158120460Y-48126192D01*
D12*
X238900077Y-20867695D02*
X238900077Y-20054895D01*
X239093601Y-20054895D01*
X239209715Y-20093600D01*
X239287124Y-20171010D01*
X239325829Y-20248419D01*
X239364534Y-20403238D01*
X239364534Y-20519352D01*
X239325829Y-20674171D01*
X239287124Y-20751581D01*
X239209715Y-20828990D01*
X239093601Y-20867695D01*
X238900077Y-20867695D01*
X239674172Y-20132305D02*
X239712877Y-20093600D01*
X239790286Y-20054895D01*
X239983810Y-20054895D01*
X240061220Y-20093600D01*
X240099924Y-20132305D01*
X240138629Y-20209714D01*
X240138629Y-20287124D01*
X240099924Y-20403238D01*
X239635467Y-20867695D01*
X240138629Y-20867695D01*
X238900077Y-30867695D02*
X238900077Y-30054895D01*
X239093601Y-30054895D01*
X239209715Y-30093600D01*
X239287124Y-30171010D01*
X239325829Y-30248419D01*
X239364534Y-30403238D01*
X239364534Y-30519352D01*
X239325829Y-30674171D01*
X239287124Y-30751581D01*
X239209715Y-30828990D01*
X239093601Y-30867695D01*
X238900077Y-30867695D01*
X240061220Y-30325829D02*
X240061220Y-30867695D01*
X239867696Y-30016190D02*
X239674172Y-30596762D01*
X240177334Y-30596762D01*
X238900077Y-25867695D02*
X238900077Y-25054895D01*
X239093601Y-25054895D01*
X239209715Y-25093600D01*
X239287124Y-25171010D01*
X239325829Y-25248419D01*
X239364534Y-25403238D01*
X239364534Y-25519352D01*
X239325829Y-25674171D01*
X239287124Y-25751581D01*
X239209715Y-25828990D01*
X239093601Y-25867695D01*
X238900077Y-25867695D01*
X239635467Y-25054895D02*
X240138629Y-25054895D01*
X239867696Y-25364533D01*
X239983810Y-25364533D01*
X240061220Y-25403238D01*
X240099924Y-25441943D01*
X240138629Y-25519352D01*
X240138629Y-25712876D01*
X240099924Y-25790286D01*
X240061220Y-25828990D01*
X239983810Y-25867695D01*
X239751582Y-25867695D01*
X239674172Y-25828990D01*
X239635467Y-25790286D01*
D13*
X254886517Y-46961054D02*
X256176776Y-47918065D01*
X255718775Y-46378300D01*
X257722399Y-46835808D02*
X256890017Y-46532714D01*
X257009035Y-47335311D02*
X256134904Y-46086923D01*
X256610481Y-45753921D01*
X256770999Y-45730118D01*
X256872072Y-45747939D01*
X257014769Y-45825208D01*
X257139645Y-46003550D01*
X257163449Y-46164068D01*
X257145627Y-46265141D01*
X257068358Y-46407838D01*
X256592782Y-46740840D01*
X257918315Y-44838166D02*
X257680527Y-45004667D01*
X257603258Y-45147364D01*
X257585436Y-45248436D01*
X257591418Y-45510028D01*
X257698472Y-45789441D01*
X258031475Y-46265017D01*
X258174172Y-46342287D01*
X258275244Y-46360108D01*
X258435763Y-46336305D01*
X258673552Y-46169804D01*
X258750820Y-46027106D01*
X258768642Y-45926034D01*
X258744839Y-45765514D01*
X258536713Y-45468279D01*
X258394015Y-45391011D01*
X258292942Y-45373188D01*
X258132423Y-45396992D01*
X257894635Y-45563493D01*
X257817366Y-45706190D01*
X257799544Y-45807263D01*
X257823348Y-45967782D01*
D14*
X255916267Y-27078990D02*
X256032381Y-27117695D01*
X256225905Y-27117695D01*
X256303315Y-27078990D01*
X256342019Y-27040286D01*
X256380724Y-26962876D01*
X256380724Y-26885467D01*
X256342019Y-26808057D01*
X256303315Y-26769352D01*
X256225905Y-26730648D01*
X256071086Y-26691943D01*
X255993677Y-26653238D01*
X255954972Y-26614533D01*
X255916267Y-26537124D01*
X255916267Y-26459714D01*
X255954972Y-26382305D01*
X255993677Y-26343600D01*
X256071086Y-26304895D01*
X256264610Y-26304895D01*
X256380724Y-26343600D01*
X256651657Y-26304895D02*
X256845181Y-27117695D01*
X257000000Y-26537124D01*
X257154819Y-27117695D01*
X257348343Y-26304895D01*
X258083733Y-27117695D02*
X257619276Y-27117695D01*
X257851505Y-27117695D02*
X257851505Y-26304895D01*
X257774095Y-26421010D01*
X257696686Y-26498419D01*
X257619276Y-26537124D01*
D12*
X238900077Y-15867695D02*
X238900077Y-15054895D01*
X239093601Y-15054895D01*
X239209715Y-15093600D01*
X239287124Y-15171010D01*
X239325829Y-15248419D01*
X239364534Y-15403238D01*
X239364534Y-15519352D01*
X239325829Y-15674171D01*
X239287124Y-15751581D01*
X239209715Y-15828990D01*
X239093601Y-15867695D01*
X238900077Y-15867695D01*
X240138629Y-15867695D02*
X239674172Y-15867695D01*
X239906401Y-15867695D02*
X239906401Y-15054895D01*
X239828991Y-15171010D01*
X239751582Y-15248419D01*
X239674172Y-15287124D01*
D13*
X220843897Y-18671665D02*
X220385896Y-20211429D01*
X221676156Y-19254419D01*
X221931519Y-21293686D02*
X221931642Y-20407838D01*
X221218154Y-20794183D02*
X222092285Y-19545795D01*
X222567862Y-19878798D01*
X222645130Y-20021495D01*
X222662952Y-20122567D01*
X222639148Y-20283086D01*
X222514272Y-20461428D01*
X222371576Y-20538696D01*
X222270502Y-20556518D01*
X222109984Y-20532715D01*
X221634407Y-20199712D01*
X223120460Y-22126192D02*
X222407095Y-21626689D01*
X222763777Y-21876440D02*
X223637908Y-20628052D01*
X223394138Y-20723142D01*
X223191994Y-20758787D01*
X223031475Y-20734983D01*
X220843897Y-44671665D02*
X220385896Y-46211429D01*
X221676156Y-45254419D01*
X221931519Y-47293686D02*
X221931642Y-46407838D01*
X221218154Y-46794183D02*
X222092285Y-45545795D01*
X222567862Y-45878798D01*
X222645130Y-46021495D01*
X222662952Y-46122567D01*
X222639148Y-46283086D01*
X222514272Y-46461428D01*
X222371576Y-46538696D01*
X222270502Y-46556518D01*
X222109984Y-46532715D01*
X221634407Y-46199712D01*
X223197976Y-46497194D02*
X223299047Y-46479373D01*
X223459567Y-46503177D01*
X223756802Y-46711303D01*
X223834071Y-46854000D01*
X223851893Y-46955072D01*
X223828089Y-47115592D01*
X223744839Y-47234486D01*
X223560516Y-47371201D01*
X222347648Y-47585063D01*
X223120460Y-48126192D01*
D12*
X152250000Y-100928571D02*
X152250000Y-102000000D01*
X152178572Y-102214286D01*
X152035715Y-102357143D01*
X151821429Y-102428571D01*
X151678572Y-102428571D01*
X153750000Y-102428571D02*
X152892857Y-102428571D01*
X153321429Y-102428571D02*
X153321429Y-100928571D01*
X153178572Y-101142857D01*
X153035714Y-101285714D01*
X152892857Y-101357143D01*
X152000000Y-86928571D02*
X152000000Y-88000000D01*
X151928572Y-88214286D01*
X151785715Y-88357143D01*
X151571429Y-88428571D01*
X151428572Y-88428571D01*
X152642857Y-87071429D02*
X152714286Y-87000000D01*
X152857143Y-86928571D01*
X153214286Y-86928571D01*
X153357143Y-87000000D01*
X153428572Y-87071429D01*
X153500000Y-87214286D01*
X153500000Y-87357143D01*
X153428572Y-87571429D01*
X152571429Y-88428571D01*
X153500000Y-88428571D01*
D13*
X154886517Y-72961054D02*
X156176776Y-73918065D01*
X155718775Y-72378300D01*
X157722399Y-72835808D02*
X156890017Y-72532714D01*
X157009035Y-73335311D02*
X156134904Y-72086923D01*
X156610481Y-71753921D01*
X156770999Y-71730118D01*
X156872072Y-71747939D01*
X157014769Y-71825208D01*
X157139645Y-72003550D01*
X157163449Y-72164068D01*
X157145627Y-72265141D01*
X157068358Y-72407838D01*
X156592782Y-72740840D01*
X157264398Y-71296044D02*
X158037210Y-70754915D01*
X157954082Y-71521868D01*
X158132423Y-71396992D01*
X158292942Y-71373188D01*
X158394015Y-71391011D01*
X158536713Y-71468279D01*
X158744839Y-71765514D01*
X158768642Y-71926034D01*
X158750820Y-72027106D01*
X158673552Y-72169804D01*
X158316870Y-72419555D01*
X158156350Y-72443358D01*
X158055278Y-72425537D01*
D12*
X166250000Y-100928571D02*
X166250000Y-102000000D01*
X166178572Y-102214286D01*
X166035715Y-102357143D01*
X165821429Y-102428571D01*
X165678572Y-102428571D01*
X167678572Y-100928571D02*
X166964286Y-100928571D01*
X166892857Y-101642857D01*
X166964286Y-101571429D01*
X167107143Y-101500000D01*
X167464286Y-101500000D01*
X167607143Y-101571429D01*
X167678572Y-101642857D01*
X167750000Y-101785714D01*
X167750000Y-102142857D01*
X167678572Y-102285714D01*
X167607143Y-102357143D01*
X167464286Y-102428571D01*
X167107143Y-102428571D01*
X166964286Y-102357143D01*
X166892857Y-102285714D01*
D13*
X190843897Y-70671665D02*
X190385896Y-72211429D01*
X191676156Y-71254419D01*
X191931519Y-73293686D02*
X191931642Y-72407838D01*
X191218154Y-72794183D02*
X192092285Y-71545795D01*
X192567862Y-71878798D01*
X192645130Y-72021495D01*
X192662952Y-72122567D01*
X192639148Y-72283086D01*
X192514272Y-72461428D01*
X192371576Y-72538696D01*
X192270502Y-72556518D01*
X192109984Y-72532715D01*
X191634407Y-72199712D01*
X193584319Y-73210683D02*
X193001565Y-74042941D01*
X193620086Y-72526980D02*
X192698472Y-73210559D01*
X193471283Y-73751687D01*
D12*
X203000000Y-86928571D02*
X203000000Y-88000000D01*
X202928572Y-88214286D01*
X202785715Y-88357143D01*
X202571429Y-88428571D01*
X202428572Y-88428571D01*
X203571429Y-86928571D02*
X204500000Y-86928571D01*
X204000000Y-87500000D01*
X204214286Y-87500000D01*
X204357143Y-87571429D01*
X204428572Y-87642857D01*
X204500000Y-87785714D01*
X204500000Y-88142857D01*
X204428572Y-88285714D01*
X204357143Y-88357143D01*
X204214286Y-88428571D01*
X203785714Y-88428571D01*
X203642857Y-88357143D01*
X203571429Y-88285714D01*
X189000000Y-100928571D02*
X189000000Y-102000000D01*
X188928572Y-102214286D01*
X188785715Y-102357143D01*
X188571429Y-102428571D01*
X188428572Y-102428571D01*
X190357143Y-101428571D02*
X190357143Y-102428571D01*
X190000000Y-100857143D02*
X189642857Y-101928571D01*
X190571429Y-101928571D01*
X203000000Y-100928571D02*
X203000000Y-102000000D01*
X202928572Y-102214286D01*
X202785715Y-102357143D01*
X202571429Y-102428571D01*
X202428572Y-102428571D01*
X204357143Y-100928571D02*
X204071429Y-100928571D01*
X203928572Y-101000000D01*
X203857143Y-101071429D01*
X203714286Y-101285714D01*
X203642857Y-101571429D01*
X203642857Y-102142857D01*
X203714286Y-102285714D01*
X203785714Y-102357143D01*
X203928572Y-102428571D01*
X204214286Y-102428571D01*
X204357143Y-102357143D01*
X204428572Y-102285714D01*
X204500000Y-102142857D01*
X204500000Y-101785714D01*
X204428572Y-101642857D01*
X204357143Y-101571429D01*
X204214286Y-101500000D01*
X203928572Y-101500000D01*
X203785714Y-101571429D01*
X203714286Y-101642857D01*
X203642857Y-101785714D01*
X173900077Y-20867695D02*
X173900077Y-20054895D01*
X174093601Y-20054895D01*
X174209715Y-20093600D01*
X174287124Y-20171010D01*
X174325829Y-20248419D01*
X174364534Y-20403238D01*
X174364534Y-20519352D01*
X174325829Y-20674171D01*
X174287124Y-20751581D01*
X174209715Y-20828990D01*
X174093601Y-20867695D01*
X173900077Y-20867695D01*
X174674172Y-20132305D02*
X174712877Y-20093600D01*
X174790286Y-20054895D01*
X174983810Y-20054895D01*
X175061220Y-20093600D01*
X175099924Y-20132305D01*
X175138629Y-20209714D01*
X175138629Y-20287124D01*
X175099924Y-20403238D01*
X174635467Y-20867695D01*
X175138629Y-20867695D01*
X173900077Y-15867695D02*
X173900077Y-15054895D01*
X174093601Y-15054895D01*
X174209715Y-15093600D01*
X174287124Y-15171010D01*
X174325829Y-15248419D01*
X174364534Y-15403238D01*
X174364534Y-15519352D01*
X174325829Y-15674171D01*
X174287124Y-15751581D01*
X174209715Y-15828990D01*
X174093601Y-15867695D01*
X173900077Y-15867695D01*
X175138629Y-15867695D02*
X174674172Y-15867695D01*
X174906401Y-15867695D02*
X174906401Y-15054895D01*
X174828991Y-15171010D01*
X174751582Y-15248419D01*
X174674172Y-15287124D01*
X173900077Y-30867695D02*
X173900077Y-30054895D01*
X174093601Y-30054895D01*
X174209715Y-30093600D01*
X174287124Y-30171010D01*
X174325829Y-30248419D01*
X174364534Y-30403238D01*
X174364534Y-30519352D01*
X174325829Y-30674171D01*
X174287124Y-30751581D01*
X174209715Y-30828990D01*
X174093601Y-30867695D01*
X173900077Y-30867695D01*
X175061220Y-30325829D02*
X175061220Y-30867695D01*
X174867696Y-30016190D02*
X174674172Y-30596762D01*
X175177334Y-30596762D01*
D13*
X155843897Y-18671665D02*
X155385896Y-20211429D01*
X156676156Y-19254419D01*
X156931519Y-21293686D02*
X156931642Y-20407838D01*
X156218154Y-20794183D02*
X157092285Y-19545795D01*
X157567862Y-19878798D01*
X157645130Y-20021495D01*
X157662952Y-20122567D01*
X157639148Y-20283086D01*
X157514272Y-20461428D01*
X157371576Y-20538696D01*
X157270502Y-20556518D01*
X157109984Y-20532715D01*
X156634407Y-20199712D01*
X158120460Y-22126192D02*
X157407095Y-21626689D01*
X157763777Y-21876440D02*
X158637908Y-20628052D01*
X158394138Y-20723142D01*
X158191994Y-20758787D01*
X158031475Y-20734983D01*
D12*
X138000000Y-100928571D02*
X138000000Y-102000000D01*
X137928572Y-102214286D01*
X137785715Y-102357143D01*
X137571429Y-102428571D01*
X137428572Y-102428571D01*
X139357143Y-100928571D02*
X139071429Y-100928571D01*
X138928572Y-101000000D01*
X138857143Y-101071429D01*
X138714286Y-101285714D01*
X138642857Y-101571429D01*
X138642857Y-102142857D01*
X138714286Y-102285714D01*
X138785714Y-102357143D01*
X138928572Y-102428571D01*
X139214286Y-102428571D01*
X139357143Y-102357143D01*
X139428572Y-102285714D01*
X139500000Y-102142857D01*
X139500000Y-101785714D01*
X139428572Y-101642857D01*
X139357143Y-101571429D01*
X139214286Y-101500000D01*
X138928572Y-101500000D01*
X138785714Y-101571429D01*
X138714286Y-101642857D01*
X138642857Y-101785714D01*
X101250000Y-100928571D02*
X101250000Y-102000000D01*
X101178572Y-102214286D01*
X101035715Y-102357143D01*
X100821429Y-102428571D01*
X100678572Y-102428571D01*
X102678572Y-100928571D02*
X101964286Y-100928571D01*
X101892857Y-101642857D01*
X101964286Y-101571429D01*
X102107143Y-101500000D01*
X102464286Y-101500000D01*
X102607143Y-101571429D01*
X102678572Y-101642857D01*
X102750000Y-101785714D01*
X102750000Y-102142857D01*
X102678572Y-102285714D01*
X102607143Y-102357143D01*
X102464286Y-102428571D01*
X102107143Y-102428571D01*
X101964286Y-102357143D01*
X101892857Y-102285714D01*
X124000000Y-100928571D02*
X124000000Y-102000000D01*
X123928572Y-102214286D01*
X123785715Y-102357143D01*
X123571429Y-102428571D01*
X123428572Y-102428571D01*
X125357143Y-101428571D02*
X125357143Y-102428571D01*
X125000000Y-100857143D02*
X124642857Y-101928571D01*
X125571429Y-101928571D01*
X138000000Y-86928571D02*
X138000000Y-88000000D01*
X137928572Y-88214286D01*
X137785715Y-88357143D01*
X137571429Y-88428571D01*
X137428572Y-88428571D01*
X138571429Y-86928571D02*
X139500000Y-86928571D01*
X139000000Y-87500000D01*
X139214286Y-87500000D01*
X139357143Y-87571429D01*
X139428572Y-87642857D01*
X139500000Y-87785714D01*
X139500000Y-88142857D01*
X139428572Y-88285714D01*
X139357143Y-88357143D01*
X139214286Y-88428571D01*
X138785714Y-88428571D01*
X138642857Y-88357143D01*
X138571429Y-88285714D01*
X87000000Y-86928571D02*
X87000000Y-88000000D01*
X86928572Y-88214286D01*
X86785715Y-88357143D01*
X86571429Y-88428571D01*
X86428572Y-88428571D01*
X87642857Y-87071429D02*
X87714286Y-87000000D01*
X87857143Y-86928571D01*
X88214286Y-86928571D01*
X88357143Y-87000000D01*
X88428572Y-87071429D01*
X88500000Y-87214286D01*
X88500000Y-87357143D01*
X88428572Y-87571429D01*
X87571429Y-88428571D01*
X88500000Y-88428571D01*
X87250000Y-100928571D02*
X87250000Y-102000000D01*
X87178572Y-102214286D01*
X87035715Y-102357143D01*
X86821429Y-102428571D01*
X86678572Y-102428571D01*
X88750000Y-102428571D02*
X87892857Y-102428571D01*
X88321429Y-102428571D02*
X88321429Y-100928571D01*
X88178572Y-101142857D01*
X88035714Y-101285714D01*
X87892857Y-101357143D01*
D13*
X125843897Y-70671665D02*
X125385896Y-72211429D01*
X126676156Y-71254419D01*
X126931519Y-73293686D02*
X126931642Y-72407838D01*
X126218154Y-72794183D02*
X127092285Y-71545795D01*
X127567862Y-71878798D01*
X127645130Y-72021495D01*
X127662952Y-72122567D01*
X127639148Y-72283086D01*
X127514272Y-72461428D01*
X127371576Y-72538696D01*
X127270502Y-72556518D01*
X127109984Y-72532715D01*
X126634407Y-72199712D01*
X128584319Y-73210683D02*
X128001565Y-74042941D01*
X128620086Y-72526980D02*
X127698472Y-73210559D01*
X128471283Y-73751687D01*
X89886517Y-72961054D02*
X91176776Y-73918065D01*
X90718775Y-72378300D01*
X92722399Y-72835808D02*
X91890017Y-72532714D01*
X92009035Y-73335311D02*
X91134904Y-72086923D01*
X91610481Y-71753921D01*
X91770999Y-71730118D01*
X91872072Y-71747939D01*
X92014769Y-71825208D01*
X92139645Y-72003550D01*
X92163449Y-72164068D01*
X92145627Y-72265141D01*
X92068358Y-72407838D01*
X91592782Y-72740840D01*
X92264398Y-71296044D02*
X93037210Y-70754915D01*
X92954082Y-71521868D01*
X93132423Y-71396992D01*
X93292942Y-71373188D01*
X93394015Y-71391011D01*
X93536713Y-71468279D01*
X93744839Y-71765514D01*
X93768642Y-71926034D01*
X93750820Y-72027106D01*
X93673552Y-72169804D01*
X93316870Y-72419555D01*
X93156350Y-72443358D01*
X93055278Y-72425537D01*
X124886517Y-46961054D02*
X126176776Y-47918065D01*
X125718775Y-46378300D01*
X127722399Y-46835808D02*
X126890017Y-46532714D01*
X127009035Y-47335311D02*
X126134904Y-46086923D01*
X126610481Y-45753921D01*
X126770999Y-45730118D01*
X126872072Y-45747939D01*
X127014769Y-45825208D01*
X127139645Y-46003550D01*
X127163449Y-46164068D01*
X127145627Y-46265141D01*
X127068358Y-46407838D01*
X126592782Y-46740840D01*
X127918315Y-44838166D02*
X127680527Y-45004667D01*
X127603258Y-45147364D01*
X127585436Y-45248436D01*
X127591418Y-45510028D01*
X127698472Y-45789441D01*
X128031475Y-46265017D01*
X128174172Y-46342287D01*
X128275244Y-46360108D01*
X128435763Y-46336305D01*
X128673552Y-46169804D01*
X128750820Y-46027106D01*
X128768642Y-45926034D01*
X128744839Y-45765514D01*
X128536713Y-45468279D01*
X128394015Y-45391011D01*
X128292942Y-45373188D01*
X128132423Y-45396992D01*
X127894635Y-45563493D01*
X127817366Y-45706190D01*
X127799544Y-45807263D01*
X127823348Y-45967782D01*
D14*
X125916267Y-27078990D02*
X126032381Y-27117695D01*
X126225905Y-27117695D01*
X126303315Y-27078990D01*
X126342019Y-27040286D01*
X126380724Y-26962876D01*
X126380724Y-26885467D01*
X126342019Y-26808057D01*
X126303315Y-26769352D01*
X126225905Y-26730648D01*
X126071086Y-26691943D01*
X125993677Y-26653238D01*
X125954972Y-26614533D01*
X125916267Y-26537124D01*
X125916267Y-26459714D01*
X125954972Y-26382305D01*
X125993677Y-26343600D01*
X126071086Y-26304895D01*
X126264610Y-26304895D01*
X126380724Y-26343600D01*
X126651657Y-26304895D02*
X126845181Y-27117695D01*
X127000000Y-26537124D01*
X127154819Y-27117695D01*
X127348343Y-26304895D01*
X128083733Y-27117695D02*
X127619276Y-27117695D01*
X127851505Y-27117695D02*
X127851505Y-26304895D01*
X127774095Y-26421010D01*
X127696686Y-26498419D01*
X127619276Y-26537124D01*
D13*
X90843897Y-44671665D02*
X90385896Y-46211429D01*
X91676156Y-45254419D01*
X91931519Y-47293686D02*
X91931642Y-46407838D01*
X91218154Y-46794183D02*
X92092285Y-45545795D01*
X92567862Y-45878798D01*
X92645130Y-46021495D01*
X92662952Y-46122567D01*
X92639148Y-46283086D01*
X92514272Y-46461428D01*
X92371576Y-46538696D01*
X92270502Y-46556518D01*
X92109984Y-46532715D01*
X91634407Y-46199712D01*
X93197976Y-46497194D02*
X93299047Y-46479373D01*
X93459567Y-46503177D01*
X93756802Y-46711303D01*
X93834071Y-46854000D01*
X93851893Y-46955072D01*
X93828089Y-47115592D01*
X93744839Y-47234486D01*
X93560516Y-47371201D01*
X92347648Y-47585063D01*
X93120460Y-48126192D01*
X90843897Y-18671665D02*
X90385896Y-20211429D01*
X91676156Y-19254419D01*
X91931519Y-21293686D02*
X91931642Y-20407838D01*
X91218154Y-20794183D02*
X92092285Y-19545795D01*
X92567862Y-19878798D01*
X92645130Y-20021495D01*
X92662952Y-20122567D01*
X92639148Y-20283086D01*
X92514272Y-20461428D01*
X92371576Y-20538696D01*
X92270502Y-20556518D01*
X92109984Y-20532715D01*
X91634407Y-20199712D01*
X93120460Y-22126192D02*
X92407095Y-21626689D01*
X92763777Y-21876440D02*
X93637908Y-20628052D01*
X93394138Y-20723142D01*
X93191994Y-20758787D01*
X93031475Y-20734983D01*
D12*
X108900077Y-20867695D02*
X108900077Y-20054895D01*
X109093601Y-20054895D01*
X109209715Y-20093600D01*
X109287124Y-20171010D01*
X109325829Y-20248419D01*
X109364534Y-20403238D01*
X109364534Y-20519352D01*
X109325829Y-20674171D01*
X109287124Y-20751581D01*
X109209715Y-20828990D01*
X109093601Y-20867695D01*
X108900077Y-20867695D01*
X109674172Y-20132305D02*
X109712877Y-20093600D01*
X109790286Y-20054895D01*
X109983810Y-20054895D01*
X110061220Y-20093600D01*
X110099924Y-20132305D01*
X110138629Y-20209714D01*
X110138629Y-20287124D01*
X110099924Y-20403238D01*
X109635467Y-20867695D01*
X110138629Y-20867695D01*
X108900077Y-25867695D02*
X108900077Y-25054895D01*
X109093601Y-25054895D01*
X109209715Y-25093600D01*
X109287124Y-25171010D01*
X109325829Y-25248419D01*
X109364534Y-25403238D01*
X109364534Y-25519352D01*
X109325829Y-25674171D01*
X109287124Y-25751581D01*
X109209715Y-25828990D01*
X109093601Y-25867695D01*
X108900077Y-25867695D01*
X109635467Y-25054895D02*
X110138629Y-25054895D01*
X109867696Y-25364533D01*
X109983810Y-25364533D01*
X110061220Y-25403238D01*
X110099924Y-25441943D01*
X110138629Y-25519352D01*
X110138629Y-25712876D01*
X110099924Y-25790286D01*
X110061220Y-25828990D01*
X109983810Y-25867695D01*
X109751582Y-25867695D01*
X109674172Y-25828990D01*
X109635467Y-25790286D01*
X108900077Y-30867695D02*
X108900077Y-30054895D01*
X109093601Y-30054895D01*
X109209715Y-30093600D01*
X109287124Y-30171010D01*
X109325829Y-30248419D01*
X109364534Y-30403238D01*
X109364534Y-30519352D01*
X109325829Y-30674171D01*
X109287124Y-30751581D01*
X109209715Y-30828990D01*
X109093601Y-30867695D01*
X108900077Y-30867695D01*
X110061220Y-30325829D02*
X110061220Y-30867695D01*
X109867696Y-30016190D02*
X109674172Y-30596762D01*
X110177334Y-30596762D01*
X108900077Y-15867695D02*
X108900077Y-15054895D01*
X109093601Y-15054895D01*
X109209715Y-15093600D01*
X109287124Y-15171010D01*
X109325829Y-15248419D01*
X109364534Y-15403238D01*
X109364534Y-15519352D01*
X109325829Y-15674171D01*
X109287124Y-15751581D01*
X109209715Y-15828990D01*
X109093601Y-15867695D01*
X108900077Y-15867695D01*
X110138629Y-15867695D02*
X109674172Y-15867695D01*
X109906401Y-15867695D02*
X109906401Y-15054895D01*
X109828991Y-15171010D01*
X109751582Y-15248419D01*
X109674172Y-15287124D01*
D13*
X25843897Y-18671665D02*
X25385896Y-20211429D01*
X26676156Y-19254419D01*
X26931519Y-21293686D02*
X26931642Y-20407838D01*
X26218154Y-20794183D02*
X27092285Y-19545795D01*
X27567862Y-19878798D01*
X27645130Y-20021495D01*
X27662952Y-20122567D01*
X27639148Y-20283086D01*
X27514272Y-20461428D01*
X27371576Y-20538696D01*
X27270502Y-20556518D01*
X27109984Y-20532715D01*
X26634407Y-20199712D01*
X28120460Y-22126192D02*
X27407095Y-21626689D01*
X27763777Y-21876440D02*
X28637908Y-20628052D01*
X28394138Y-20723142D01*
X28191994Y-20758787D01*
X28031475Y-20734983D01*
D14*
X60916267Y-27078990D02*
X61032381Y-27117695D01*
X61225905Y-27117695D01*
X61303315Y-27078990D01*
X61342019Y-27040286D01*
X61380724Y-26962876D01*
X61380724Y-26885467D01*
X61342019Y-26808057D01*
X61303315Y-26769352D01*
X61225905Y-26730648D01*
X61071086Y-26691943D01*
X60993677Y-26653238D01*
X60954972Y-26614533D01*
X60916267Y-26537124D01*
X60916267Y-26459714D01*
X60954972Y-26382305D01*
X60993677Y-26343600D01*
X61071086Y-26304895D01*
X61264610Y-26304895D01*
X61380724Y-26343600D01*
X61651657Y-26304895D02*
X61845181Y-27117695D01*
X62000000Y-26537124D01*
X62154819Y-27117695D01*
X62348343Y-26304895D01*
X63083733Y-27117695D02*
X62619276Y-27117695D01*
X62851505Y-27117695D02*
X62851505Y-26304895D01*
X62774095Y-26421010D01*
X62696686Y-26498419D01*
X62619276Y-26537124D01*
D12*
X43900077Y-30867695D02*
X43900077Y-30054895D01*
X44093601Y-30054895D01*
X44209715Y-30093600D01*
X44287124Y-30171010D01*
X44325829Y-30248419D01*
X44364534Y-30403238D01*
X44364534Y-30519352D01*
X44325829Y-30674171D01*
X44287124Y-30751581D01*
X44209715Y-30828990D01*
X44093601Y-30867695D01*
X43900077Y-30867695D01*
X45061220Y-30325829D02*
X45061220Y-30867695D01*
X44867696Y-30016190D02*
X44674172Y-30596762D01*
X45177334Y-30596762D01*
X43900077Y-25867695D02*
X43900077Y-25054895D01*
X44093601Y-25054895D01*
X44209715Y-25093600D01*
X44287124Y-25171010D01*
X44325829Y-25248419D01*
X44364534Y-25403238D01*
X44364534Y-25519352D01*
X44325829Y-25674171D01*
X44287124Y-25751581D01*
X44209715Y-25828990D01*
X44093601Y-25867695D01*
X43900077Y-25867695D01*
X44635467Y-25054895D02*
X45138629Y-25054895D01*
X44867696Y-25364533D01*
X44983810Y-25364533D01*
X45061220Y-25403238D01*
X45099924Y-25441943D01*
X45138629Y-25519352D01*
X45138629Y-25712876D01*
X45099924Y-25790286D01*
X45061220Y-25828990D01*
X44983810Y-25867695D01*
X44751582Y-25867695D01*
X44674172Y-25828990D01*
X44635467Y-25790286D01*
X43900077Y-20867695D02*
X43900077Y-20054895D01*
X44093601Y-20054895D01*
X44209715Y-20093600D01*
X44287124Y-20171010D01*
X44325829Y-20248419D01*
X44364534Y-20403238D01*
X44364534Y-20519352D01*
X44325829Y-20674171D01*
X44287124Y-20751581D01*
X44209715Y-20828990D01*
X44093601Y-20867695D01*
X43900077Y-20867695D01*
X44674172Y-20132305D02*
X44712877Y-20093600D01*
X44790286Y-20054895D01*
X44983810Y-20054895D01*
X45061220Y-20093600D01*
X45099924Y-20132305D01*
X45138629Y-20209714D01*
X45138629Y-20287124D01*
X45099924Y-20403238D01*
X44635467Y-20867695D01*
X45138629Y-20867695D01*
X43900077Y-15867695D02*
X43900077Y-15054895D01*
X44093601Y-15054895D01*
X44209715Y-15093600D01*
X44287124Y-15171010D01*
X44325829Y-15248419D01*
X44364534Y-15403238D01*
X44364534Y-15519352D01*
X44325829Y-15674171D01*
X44287124Y-15751581D01*
X44209715Y-15828990D01*
X44093601Y-15867695D01*
X43900077Y-15867695D01*
X45138629Y-15867695D02*
X44674172Y-15867695D01*
X44906401Y-15867695D02*
X44906401Y-15054895D01*
X44828991Y-15171010D01*
X44751582Y-15248419D01*
X44674172Y-15287124D01*
D13*
X25843897Y-44671665D02*
X25385896Y-46211429D01*
X26676156Y-45254419D01*
X26931519Y-47293686D02*
X26931642Y-46407838D01*
X26218154Y-46794183D02*
X27092285Y-45545795D01*
X27567862Y-45878798D01*
X27645130Y-46021495D01*
X27662952Y-46122567D01*
X27639148Y-46283086D01*
X27514272Y-46461428D01*
X27371576Y-46538696D01*
X27270502Y-46556518D01*
X27109984Y-46532715D01*
X26634407Y-46199712D01*
X28197976Y-46497194D02*
X28299047Y-46479373D01*
X28459567Y-46503177D01*
X28756802Y-46711303D01*
X28834071Y-46854000D01*
X28851893Y-46955072D01*
X28828089Y-47115592D01*
X28744839Y-47234486D01*
X28560516Y-47371201D01*
X27347648Y-47585063D01*
X28120460Y-48126192D01*
X24886517Y-72961054D02*
X26176776Y-73918065D01*
X25718775Y-72378300D01*
X27722399Y-72835808D02*
X26890017Y-72532714D01*
X27009035Y-73335311D02*
X26134904Y-72086923D01*
X26610481Y-71753921D01*
X26770999Y-71730118D01*
X26872072Y-71747939D01*
X27014769Y-71825208D01*
X27139645Y-72003550D01*
X27163449Y-72164068D01*
X27145627Y-72265141D01*
X27068358Y-72407838D01*
X26592782Y-72740840D01*
X27264398Y-71296044D02*
X28037210Y-70754915D01*
X27954082Y-71521868D01*
X28132423Y-71396992D01*
X28292942Y-71373188D01*
X28394015Y-71391011D01*
X28536713Y-71468279D01*
X28744839Y-71765514D01*
X28768642Y-71926034D01*
X28750820Y-72027106D01*
X28673552Y-72169804D01*
X28316870Y-72419555D01*
X28156350Y-72443358D01*
X28055278Y-72425537D01*
X60843897Y-70671665D02*
X60385896Y-72211429D01*
X61676156Y-71254419D01*
X61931519Y-73293686D02*
X61931642Y-72407838D01*
X61218154Y-72794183D02*
X62092285Y-71545795D01*
X62567862Y-71878798D01*
X62645130Y-72021495D01*
X62662952Y-72122567D01*
X62639148Y-72283086D01*
X62514272Y-72461428D01*
X62371576Y-72538696D01*
X62270502Y-72556518D01*
X62109984Y-72532715D01*
X61634407Y-72199712D01*
X63584319Y-73210683D02*
X63001565Y-74042941D01*
X63620086Y-72526980D02*
X62698472Y-73210559D01*
X63471283Y-73751687D01*
X59886517Y-46961054D02*
X61176776Y-47918065D01*
X60718775Y-46378300D01*
X62722399Y-46835808D02*
X61890017Y-46532714D01*
X62009035Y-47335311D02*
X61134904Y-46086923D01*
X61610481Y-45753921D01*
X61770999Y-45730118D01*
X61872072Y-45747939D01*
X62014769Y-45825208D01*
X62139645Y-46003550D01*
X62163449Y-46164068D01*
X62145627Y-46265141D01*
X62068358Y-46407838D01*
X61592782Y-46740840D01*
X62918315Y-44838166D02*
X62680527Y-45004667D01*
X62603258Y-45147364D01*
X62585436Y-45248436D01*
X62591418Y-45510028D01*
X62698472Y-45789441D01*
X63031475Y-46265017D01*
X63174172Y-46342287D01*
X63275244Y-46360108D01*
X63435763Y-46336305D01*
X63673552Y-46169804D01*
X63750820Y-46027106D01*
X63768642Y-45926034D01*
X63744839Y-45765514D01*
X63536713Y-45468279D01*
X63394015Y-45391011D01*
X63292942Y-45373188D01*
X63132423Y-45396992D01*
X62894635Y-45563493D01*
X62817366Y-45706190D01*
X62799544Y-45807263D01*
X62823348Y-45967782D01*
D12*
X22250000Y-100928571D02*
X22250000Y-102000000D01*
X22178572Y-102214286D01*
X22035715Y-102357143D01*
X21821429Y-102428571D01*
X21678572Y-102428571D01*
X23750000Y-102428571D02*
X22892857Y-102428571D01*
X23321429Y-102428571D02*
X23321429Y-100928571D01*
X23178572Y-101142857D01*
X23035714Y-101285714D01*
X22892857Y-101357143D01*
X22000000Y-86928571D02*
X22000000Y-88000000D01*
X21928572Y-88214286D01*
X21785715Y-88357143D01*
X21571429Y-88428571D01*
X21428572Y-88428571D01*
X22642857Y-87071429D02*
X22714286Y-87000000D01*
X22857143Y-86928571D01*
X23214286Y-86928571D01*
X23357143Y-87000000D01*
X23428572Y-87071429D01*
X23500000Y-87214286D01*
X23500000Y-87357143D01*
X23428572Y-87571429D01*
X22571429Y-88428571D01*
X23500000Y-88428571D01*
X73000000Y-86928571D02*
X73000000Y-88000000D01*
X72928572Y-88214286D01*
X72785715Y-88357143D01*
X72571429Y-88428571D01*
X72428572Y-88428571D01*
X73571429Y-86928571D02*
X74500000Y-86928571D01*
X74000000Y-87500000D01*
X74214286Y-87500000D01*
X74357143Y-87571429D01*
X74428572Y-87642857D01*
X74500000Y-87785714D01*
X74500000Y-88142857D01*
X74428572Y-88285714D01*
X74357143Y-88357143D01*
X74214286Y-88428571D01*
X73785714Y-88428571D01*
X73642857Y-88357143D01*
X73571429Y-88285714D01*
X59000000Y-100928571D02*
X59000000Y-102000000D01*
X58928572Y-102214286D01*
X58785715Y-102357143D01*
X58571429Y-102428571D01*
X58428572Y-102428571D01*
X60357143Y-101428571D02*
X60357143Y-102428571D01*
X60000000Y-100857143D02*
X59642857Y-101928571D01*
X60571429Y-101928571D01*
X36250000Y-100928571D02*
X36250000Y-102000000D01*
X36178572Y-102214286D01*
X36035715Y-102357143D01*
X35821429Y-102428571D01*
X35678572Y-102428571D01*
X37678572Y-100928571D02*
X36964286Y-100928571D01*
X36892857Y-101642857D01*
X36964286Y-101571429D01*
X37107143Y-101500000D01*
X37464286Y-101500000D01*
X37607143Y-101571429D01*
X37678572Y-101642857D01*
X37750000Y-101785714D01*
X37750000Y-102142857D01*
X37678572Y-102285714D01*
X37607143Y-102357143D01*
X37464286Y-102428571D01*
X37107143Y-102428571D01*
X36964286Y-102357143D01*
X36892857Y-102285714D01*
X73000000Y-100928571D02*
X73000000Y-102000000D01*
X72928572Y-102214286D01*
X72785715Y-102357143D01*
X72571429Y-102428571D01*
X72428572Y-102428571D01*
X74357143Y-100928571D02*
X74071429Y-100928571D01*
X73928572Y-101000000D01*
X73857143Y-101071429D01*
X73714286Y-101285714D01*
X73642857Y-101571429D01*
X73642857Y-102142857D01*
X73714286Y-102285714D01*
X73785714Y-102357143D01*
X73928572Y-102428571D01*
X74214286Y-102428571D01*
X74357143Y-102357143D01*
X74428572Y-102285714D01*
X74500000Y-102142857D01*
X74500000Y-101785714D01*
X74428572Y-101642857D01*
X74357143Y-101571429D01*
X74214286Y-101500000D01*
X73928572Y-101500000D01*
X73785714Y-101571429D01*
X73714286Y-101642857D01*
X73642857Y-101785714D01*
%LPC*%
D15*
X266250000Y-36500000D03*
D16*
X268790000Y-36500000D03*
X266250000Y-33960000D03*
X268790000Y-33960000D03*
X266250000Y-31420000D03*
X268790000Y-31420000D03*
X266250000Y-28880000D03*
X268790000Y-28880000D03*
X266250000Y-26340000D03*
X268790000Y-26340000D03*
D17*
X246000000Y-91500000D03*
X251000000Y-91500000D03*
X233000000Y-91500000D03*
X228000000Y-91500000D03*
X233000000Y-61500000D03*
X228000000Y-61500000D03*
X246000000Y-61500000D03*
X251000000Y-61500000D03*
D18*
X219250000Y-43500000D03*
X226500000Y-16250000D03*
D15*
X201250000Y-36500000D03*
D16*
X203790000Y-36500000D03*
X201250000Y-33960000D03*
X203790000Y-33960000D03*
X201250000Y-31420000D03*
X203790000Y-31420000D03*
X201250000Y-28880000D03*
X203790000Y-28880000D03*
X201250000Y-26340000D03*
X203790000Y-26340000D03*
D17*
X181000000Y-91500000D03*
X186000000Y-91500000D03*
X168000000Y-91500000D03*
X163000000Y-91500000D03*
D18*
X154250000Y-43500000D03*
X161500000Y-16250000D03*
D17*
X181000000Y-61500000D03*
X186000000Y-61500000D03*
X168000000Y-61500000D03*
X163000000Y-61500000D03*
D19*
X246300000Y-106500000D03*
D20*
X255700000Y-106500000D03*
D21*
X251000000Y-101600000D03*
X251000000Y-109800000D03*
D19*
X223300000Y-106500000D03*
D20*
X232700000Y-106500000D03*
D21*
X228000000Y-101600000D03*
X228000000Y-109800000D03*
D19*
X260300000Y-92500000D03*
D20*
X269700000Y-92500000D03*
D21*
X265000000Y-87600000D03*
X265000000Y-95800000D03*
D22*
X266177223Y-59393567D03*
X262081463Y-56525685D03*
X270272983Y-62261449D03*
D19*
X209300000Y-92500000D03*
D20*
X218700000Y-92500000D03*
D21*
X214000000Y-87600000D03*
X214000000Y-95800000D03*
D19*
X260300000Y-106500000D03*
D20*
X269700000Y-106500000D03*
D21*
X265000000Y-101600000D03*
X265000000Y-109800000D03*
D19*
X209300000Y-106500000D03*
D20*
X218700000Y-106500000D03*
D21*
X214000000Y-101600000D03*
X214000000Y-109800000D03*
D22*
X212822777Y-59393567D03*
X208727017Y-62261449D03*
X216918537Y-56525685D03*
X182822777Y-33393567D03*
X178727017Y-36261449D03*
X186918537Y-30525685D03*
D23*
X175770000Y-23000000D03*
D24*
X173230000Y-23000000D03*
D25*
X189500000Y-18000000D03*
X194500000Y-18000000D03*
X194500000Y-23000000D03*
X189500000Y-23000000D03*
D22*
X166177223Y-33393567D03*
X162081463Y-30525685D03*
X170272983Y-36261449D03*
D23*
X240770000Y-18000000D03*
D24*
X238230000Y-18000000D03*
D23*
X240770000Y-28000000D03*
D24*
X238230000Y-28000000D03*
D23*
X240770000Y-23000000D03*
D24*
X238230000Y-23000000D03*
D22*
X247822777Y-33393567D03*
X243727017Y-36261449D03*
X251918537Y-30525685D03*
D25*
X254500000Y-18000000D03*
X259500000Y-18000000D03*
X259500000Y-23000000D03*
X254500000Y-23000000D03*
D23*
X240770000Y-13000000D03*
D24*
X238230000Y-13000000D03*
D22*
X212822777Y-33606433D03*
X216918537Y-36474315D03*
X208727017Y-30738551D03*
X231177223Y-33393567D03*
X227081463Y-30525685D03*
X235272983Y-36261449D03*
D19*
X144300000Y-106500000D03*
D20*
X153700000Y-106500000D03*
D21*
X149000000Y-101600000D03*
X149000000Y-109800000D03*
D19*
X144300000Y-92500000D03*
D20*
X153700000Y-92500000D03*
D21*
X149000000Y-87600000D03*
X149000000Y-95800000D03*
D22*
X147822777Y-59393567D03*
X143727017Y-62261449D03*
X151918537Y-56525685D03*
D19*
X158300000Y-106500000D03*
D20*
X167700000Y-106500000D03*
D21*
X163000000Y-101600000D03*
X163000000Y-109800000D03*
D22*
X201177223Y-59393567D03*
X197081463Y-56525685D03*
X205272983Y-62261449D03*
D19*
X195300000Y-92500000D03*
D20*
X204700000Y-92500000D03*
D21*
X200000000Y-87600000D03*
X200000000Y-95800000D03*
D19*
X181300000Y-106500000D03*
D20*
X190700000Y-106500000D03*
D21*
X186000000Y-101600000D03*
X186000000Y-109800000D03*
D19*
X195300000Y-106500000D03*
D20*
X204700000Y-106500000D03*
D21*
X200000000Y-101600000D03*
X200000000Y-109800000D03*
D23*
X175770000Y-18000000D03*
D24*
X173230000Y-18000000D03*
D23*
X175770000Y-13000000D03*
D24*
X173230000Y-13000000D03*
D23*
X175770000Y-28000000D03*
D24*
X173230000Y-28000000D03*
D22*
X147822777Y-33606433D03*
X151918537Y-36474315D03*
X143727017Y-30738551D03*
D18*
X96500000Y-16250000D03*
D15*
X136250000Y-36500000D03*
D16*
X138790000Y-36500000D03*
X136250000Y-33960000D03*
X138790000Y-33960000D03*
X136250000Y-31420000D03*
X138790000Y-31420000D03*
X136250000Y-28880000D03*
X138790000Y-28880000D03*
X136250000Y-26340000D03*
X138790000Y-26340000D03*
D17*
X103000000Y-91500000D03*
X98000000Y-91500000D03*
X116000000Y-91500000D03*
X121000000Y-91500000D03*
D18*
X89250000Y-43500000D03*
D17*
X116000000Y-61500000D03*
X121000000Y-61500000D03*
X103000000Y-61500000D03*
X98000000Y-61500000D03*
D19*
X130300000Y-106500000D03*
D20*
X139700000Y-106500000D03*
D21*
X135000000Y-101600000D03*
X135000000Y-109800000D03*
D19*
X93300000Y-106500000D03*
D20*
X102700000Y-106500000D03*
D21*
X98000000Y-101600000D03*
X98000000Y-109800000D03*
D19*
X116300000Y-106500000D03*
D20*
X125700000Y-106500000D03*
D21*
X121000000Y-101600000D03*
X121000000Y-109800000D03*
D19*
X130300000Y-92500000D03*
D20*
X139700000Y-92500000D03*
D21*
X135000000Y-87600000D03*
X135000000Y-95800000D03*
D19*
X79300000Y-92500000D03*
D20*
X88700000Y-92500000D03*
D21*
X84000000Y-87600000D03*
X84000000Y-95800000D03*
D19*
X79300000Y-106500000D03*
D20*
X88700000Y-106500000D03*
D21*
X84000000Y-101600000D03*
X84000000Y-109800000D03*
D22*
X136177223Y-59393567D03*
X132081463Y-56525685D03*
X140272983Y-62261449D03*
X82822777Y-59393567D03*
X78727017Y-62261449D03*
X86918537Y-56525685D03*
X117822777Y-33393567D03*
X113727017Y-36261449D03*
X121918537Y-30525685D03*
D25*
X124500000Y-18000000D03*
X129500000Y-18000000D03*
X129500000Y-23000000D03*
X124500000Y-23000000D03*
D22*
X101177223Y-33393567D03*
X97081463Y-30525685D03*
X105272983Y-36261449D03*
X82822777Y-33606433D03*
X86918537Y-36474315D03*
X78727017Y-30738551D03*
D23*
X110770000Y-18000000D03*
D24*
X108230000Y-18000000D03*
D23*
X110770000Y-23000000D03*
D24*
X108230000Y-23000000D03*
D23*
X110770000Y-28000000D03*
D24*
X108230000Y-28000000D03*
D23*
X110770000Y-13000000D03*
D24*
X108230000Y-13000000D03*
D22*
X17822777Y-33606433D03*
X21918537Y-36474315D03*
X13727017Y-30738551D03*
D25*
X59500000Y-18000000D03*
X64500000Y-18000000D03*
X64500000Y-23000000D03*
X59500000Y-23000000D03*
D18*
X24250000Y-43500000D03*
X31500000Y-16250000D03*
D23*
X45770000Y-28000000D03*
D24*
X43230000Y-28000000D03*
D23*
X45770000Y-23000000D03*
D24*
X43230000Y-23000000D03*
D23*
X45770000Y-18000000D03*
D24*
X43230000Y-18000000D03*
D23*
X45770000Y-13000000D03*
D24*
X43230000Y-13000000D03*
D22*
X36177223Y-33393567D03*
X32081463Y-30525685D03*
X40272983Y-36261449D03*
X17822777Y-59393567D03*
X13727017Y-62261449D03*
X21918537Y-56525685D03*
X71177223Y-59393567D03*
X67081463Y-56525685D03*
X75272983Y-62261449D03*
X52822777Y-33393567D03*
X48727017Y-36261449D03*
X56918537Y-30525685D03*
D19*
X14300000Y-106500000D03*
D20*
X23700000Y-106500000D03*
D21*
X19000000Y-101600000D03*
X19000000Y-109800000D03*
D19*
X14300000Y-92500000D03*
D20*
X23700000Y-92500000D03*
D21*
X19000000Y-87600000D03*
X19000000Y-95800000D03*
D19*
X65300000Y-92500000D03*
D20*
X74700000Y-92500000D03*
D21*
X70000000Y-87600000D03*
X70000000Y-95800000D03*
D19*
X51300000Y-106500000D03*
D20*
X60700000Y-106500000D03*
D21*
X56000000Y-101600000D03*
X56000000Y-109800000D03*
D19*
X28300000Y-106500000D03*
D20*
X37700000Y-106500000D03*
D21*
X33000000Y-101600000D03*
X33000000Y-109800000D03*
D19*
X65300000Y-106500000D03*
D20*
X74700000Y-106500000D03*
D21*
X70000000Y-101600000D03*
X70000000Y-109800000D03*
D15*
X71250000Y-36500000D03*
D16*
X73790000Y-36500000D03*
X71250000Y-33960000D03*
X73790000Y-33960000D03*
X71250000Y-31420000D03*
X73790000Y-31420000D03*
X71250000Y-28880000D03*
X73790000Y-28880000D03*
X71250000Y-26340000D03*
X73790000Y-26340000D03*
D17*
X51000000Y-61500000D03*
X56000000Y-61500000D03*
X38000000Y-61500000D03*
X33000000Y-61500000D03*
X38000000Y-91500000D03*
X33000000Y-91500000D03*
X51000000Y-91500000D03*
X56000000Y-91500000D03*
M02*
